<svg xmlns="http://www.w3.org/2000/svg" viewBox="0 0 1200 520">
<defs>
<linearGradient id="gsb" x1="0" y1="0" x2="0" y2="1">
<stop offset="0" stop-color="#6c6750"/>
<stop offset=".5" stop-color="#928c6d"/>
<stop offset="1" stop-color="#cfc9ad"/>
</linearGradient>
<clipPath id="csb"><path d="M 175.0 252.0 C 184.7 242.3 208.4 228.0 233.4 216.0 C 258.5 204.0 282.2 188.3 325.3 180.0 C 368.4 171.7 431.1 166.3 492.3 166.0 C 553.5 165.7 631.5 170.7 692.7 178.0 C 753.9 185.3 816.6 201.0 859.7 210.0 C 902.8 219.0 926.5 226.0 951.6 232.0 C 976.6 238.0 1000.3 238.0 1010.0 246.0 C 1019.7 254.0 1019.7 271.7 1010.0 280.0 C 1000.3 288.3 976.6 290.0 951.6 296.0 C 926.5 302.0 902.8 308.3 859.7 316.0 C 816.6 323.7 753.9 336.3 692.7 342.0 C 631.5 347.7 553.5 351.3 492.3 350.0 C 431.1 348.7 368.4 342.0 325.3 334.0 C 282.2 326.0 258.5 312.0 233.4 302.0 C 208.4 292.0 184.7 282.3 175.0 274.0 C 165.3 265.7 165.3 261.7 175.0 252.0 Z"/></clipPath>

</defs>
<g stroke="#2a281c" stroke-width="2.5" stroke-linejoin="round">
<path d="M 392.1 174.4 L 392.1 118.4 L 420.72857142857146 157.6 L 449.35714285714283 116.8 L 477.98571428571427 153.76 L 506.6142857142857 117.25714285714287 L 535.2428571428571 151.97714285714287 L 563.8714285714286 123.88571428571427 L 592.5 156.3657142857143 L 621.1285714285714 130.51428571428573 L 649.7571428571428 160.75428571428571 L 678.3857142857144 137.14285714285714 L 707.0142857142857 165.14285714285714 L 735.6428571428571 149.42857142857144 L 764.2714285714285 175.18857142857144 L 792.9 163.6 L 821.5285714285714 187.11999999999998 L 792.9 197.2 Z" fill="#5e5942" opacity=".92"/><path d="M 692.7 342.0 Q 776.1999999999999 371.0 859.6999999999999 316.0 Z" fill="#5e5942" opacity=".9"/><g fill="#5e5942" opacity=".95"><path d="M 1004 230.0 L 1160 198 L 1103.0 262 L 1160 326 L 1004 294.0 Q 1040 262 1004 230.0 Z" /></g>
<path d="M 175.0 252.0 C 184.7 242.3 208.4 228.0 233.4 216.0 C 258.5 204.0 282.2 188.3 325.3 180.0 C 368.4 171.7 431.1 166.3 492.3 166.0 C 553.5 165.7 631.5 170.7 692.7 178.0 C 753.9 185.3 816.6 201.0 859.7 210.0 C 902.8 219.0 926.5 226.0 951.6 232.0 C 976.6 238.0 1000.3 238.0 1010.0 246.0 C 1019.7 254.0 1019.7 271.7 1010.0 280.0 C 1000.3 288.3 976.6 290.0 951.6 296.0 C 926.5 302.0 902.8 308.3 859.7 316.0 C 816.6 323.7 753.9 336.3 692.7 342.0 C 631.5 347.7 553.5 351.3 492.3 350.0 C 431.1 348.7 368.4 342.0 325.3 334.0 C 282.2 326.0 258.5 312.0 233.4 302.0 C 208.4 292.0 184.7 282.3 175.0 274.0 C 165.3 265.7 165.3 261.7 175.0 252.0 Z" fill="url(#gsb)"/>
<g clip-path="url(#csb)" stroke="none"><rect x="348" y="183" width="22" height="148" fill="#403c28" opacity="0.32"/><rect x="428" y="176" width="22" height="162" fill="#403c28" opacity="0.32"/><rect x="509" y="174" width="22" height="169" fill="#403c28" opacity="0.32"/><rect x="590" y="178" width="22" height="161" fill="#403c28" opacity="0.32"/><rect x="671" y="183" width="22" height="153" fill="#403c28" opacity="0.32"/><rect x="751" y="197" width="22" height="128" fill="#403c28" opacity="0.32"/><rect x="832" y="213" width="22" height="100" fill="#403c28" opacity="0.32"/><circle cx="611" cy="244" r="5" fill="#403c28" opacity="0.80"/><circle cx="329" cy="257" r="8" fill="#403c28" opacity="0.53"/><circle cx="668" cy="273" r="4" fill="#403c28" opacity="0.63"/><circle cx="760" cy="256" r="7" fill="#403c28" opacity="0.56"/><circle cx="472" cy="209" r="6" fill="#403c28" opacity="0.82"/><circle cx="690" cy="292" r="6" fill="#403c28" opacity="0.76"/><circle cx="388" cy="233" r="7" fill="#403c28" opacity="0.75"/><circle cx="586" cy="209" r="5" fill="#403c28" opacity="0.57"/><circle cx="499" cy="298" r="5" fill="#403c28" opacity="0.81"/><circle cx="869" cy="231" r="6" fill="#403c28" opacity="0.67"/></g>
<path d="M 175.0 252.0 C 184.7 242.3 208.4 228.0 233.4 216.0 C 258.5 204.0 282.2 188.3 325.3 180.0 C 368.4 171.7 431.1 166.3 492.3 166.0 C 553.5 165.7 631.5 170.7 692.7 178.0 C 753.9 185.3 816.6 201.0 859.7 210.0 C 902.8 219.0 926.5 226.0 951.6 232.0 C 976.6 238.0 1000.3 238.0 1010.0 246.0 C 1019.7 254.0 1019.7 271.7 1010.0 280.0 C 1000.3 288.3 976.6 290.0 951.6 296.0 C 926.5 302.0 902.8 308.3 859.7 316.0 C 816.6 323.7 753.9 336.3 692.7 342.0 C 631.5 347.7 553.5 351.3 492.3 350.0 C 431.1 348.7 368.4 342.0 325.3 334.0 C 282.2 326.0 258.5 312.0 233.4 302.0 C 208.4 292.0 184.7 282.3 175.0 274.0 C 165.3 265.7 165.3 261.7 175.0 252.0 Z" fill="none"/>
<path d="M 425.5 268 Q 495.5 306 433.5 334 Q 413.5 300 425.5 268 Z" fill="#7d7860" opacity=".85"/><path d="M 458.90000000000003 342.8 Q 476.90000000000003 390.8 446.90000000000003 386.8 Q 442.90000000000003 358.8 458.90000000000003 342.8 Z" fill="#7d7860" opacity=".8"/><path d="M 316.95000000000005 193.27272727272725 Q 298.95000000000005 262 316.95000000000005 321.0909090909091" fill="none" stroke="#2a281c" stroke-width="2" opacity=".5"/>
<circle cx="275.2" cy="256" r="16" fill="none" stroke="#0c0f10" stroke-width="2.5"/><circle cx="275.2" cy="256" r="13" fill="#0c1112" stroke="none"/><circle cx="271.3" cy="252.1" r="4.16" fill="#cfe0e2" stroke="none"/>
</g></svg>