<svg xmlns="http://www.w3.org/2000/svg" viewBox="0 0 1200 520">
<defs>
<linearGradient id="gsu" x1="0" y1="0" x2="0" y2="1">
<stop offset="0" stop-color="#8f989c"/>
<stop offset=".5" stop-color="#b6bdbe"/>
<stop offset="1" stop-color="#e6e8e6"/>
</linearGradient>
<clipPath id="csu"><path d="M 175.0 250.0 C 184.7 236.0 205.6 209.7 233.4 192.0 C 261.3 174.3 293.3 153.7 342.0 144.0 C 390.7 134.3 461.7 131.7 525.7 134.0 C 589.7 136.3 667.7 146.7 726.1 158.0 C 784.5 169.3 837.4 190.0 876.4 202.0 C 915.4 214.0 937.6 222.7 959.9 230.0 C 982.2 237.3 1001.6 237.7 1010.0 246.0 C 1018.4 254.3 1018.4 271.3 1010.0 280.0 C 1001.6 288.7 982.2 290.0 959.9 298.0 C 937.6 306.0 915.4 316.7 876.4 328.0 C 837.4 339.3 784.5 357.0 726.1 366.0 C 667.7 375.0 589.7 382.0 525.7 382.0 C 461.7 382.0 390.7 376.3 342.0 366.0 C 293.3 355.7 261.3 335.0 233.4 320.0 C 205.6 305.0 184.7 287.7 175.0 276.0 C 165.3 264.3 165.3 264.0 175.0 250.0 Z"/></clipPath>

</defs>
<g stroke="#33383a" stroke-width="2.5" stroke-linejoin="round">
<path d="M 375.4 142.1818181818182 L 375.4 92.18181818181819 L 398.0642857142857 127.18181818181819 L 420.7285714285714 92.57142857142858 L 443.3928571428571 125.57142857142858 L 466.0571428571428 92.96103896103898 L 488.72142857142853 123.96103896103898 L 511.38571428571424 93.35064935064938 L 534.05 122.35064935064936 L 556.7142857142858 99.14285714285715 L 579.3785714285715 126.14285714285715 L 602.0428571428572 107.42857142857142 L 624.7071428571429 132.42857142857142 L 647.3714285714285 115.7142857142857 L 670.0357142857142 138.7142857142857 L 692.7 124.0 L 715.3642857142858 145.0 L 692.7 154.0 Z" fill="#9aa0a0" opacity=".92"/><path d="M 676.0 370.0 Q 759.5 399.55555555555554 843.0 336.44444444444446 Z" fill="#9aa0a0" opacity=".9"/><g fill="#9aa0a0" opacity=".95"><path d="M 1004 233.0 L 1160 204 L 1103.0 262 L 1160 320 L 1004 291.0 Q 1040 262 1004 233.0 Z" /></g>
<path d="M 175.0 250.0 C 184.7 236.0 205.6 209.7 233.4 192.0 C 261.3 174.3 293.3 153.7 342.0 144.0 C 390.7 134.3 461.7 131.7 525.7 134.0 C 589.7 136.3 667.7 146.7 726.1 158.0 C 784.5 169.3 837.4 190.0 876.4 202.0 C 915.4 214.0 937.6 222.7 959.9 230.0 C 982.2 237.3 1001.6 237.7 1010.0 246.0 C 1018.4 254.3 1018.4 271.3 1010.0 280.0 C 1001.6 288.7 982.2 290.0 959.9 298.0 C 937.6 306.0 915.4 316.7 876.4 328.0 C 837.4 339.3 784.5 357.0 726.1 366.0 C 667.7 375.0 589.7 382.0 525.7 382.0 C 461.7 382.0 390.7 376.3 342.0 366.0 C 293.3 355.7 261.3 335.0 233.4 320.0 C 205.6 305.0 184.7 287.7 175.0 276.0 C 165.3 264.3 165.3 264.0 175.0 250.0 Z" fill="url(#gsu)"/>
<g clip-path="url(#csu)" stroke="none"><rect x="351" y="149" width="16" height="212" fill="#7a6b52" opacity="0.3"/><rect x="411" y="146" width="16" height="221" fill="#7a6b52" opacity="0.3"/><rect x="472" y="142" width="16" height="230" fill="#7a6b52" opacity="0.3"/><rect x="532" y="142" width="16" height="233" fill="#7a6b52" opacity="0.3"/><rect x="593" y="149" width="16" height="221" fill="#7a6b52" opacity="0.3"/><rect x="653" y="156" width="16" height="209" fill="#7a6b52" opacity="0.3"/><rect x="714" y="164" width="16" height="197" fill="#7a6b52" opacity="0.3"/><rect x="774" y="180" width="16" height="165" fill="#7a6b52" opacity="0.3"/><rect x="835" y="198" width="16" height="132" fill="#7a6b52" opacity="0.3"/><polyline points="325 234 359 233 392 233 426 233 459 233 492 233 526 233 559 235 592 236 626 237 659 239 693 240 726 241 760 244 793 246 826 249 860 251 893 253 926 255 960 257" fill="none" stroke="#6f777a" stroke-width="2" opacity="0.25"/></g>
<path d="M 175.0 250.0 C 184.7 236.0 205.6 209.7 233.4 192.0 C 261.3 174.3 293.3 153.7 342.0 144.0 C 390.7 134.3 461.7 131.7 525.7 134.0 C 589.7 136.3 667.7 146.7 726.1 158.0 C 784.5 169.3 837.4 190.0 876.4 202.0 C 915.4 214.0 937.6 222.7 959.9 230.0 C 982.2 237.3 1001.6 237.7 1010.0 246.0 C 1018.4 254.3 1018.4 271.3 1010.0 280.0 C 1001.6 288.7 982.2 290.0 959.9 298.0 C 937.6 306.0 915.4 316.7 876.4 328.0 C 837.4 339.3 784.5 357.0 726.1 366.0 C 667.7 375.0 589.7 382.0 525.7 382.0 C 461.7 382.0 390.7 376.3 342.0 366.0 C 293.3 355.7 261.3 335.0 233.4 320.0 C 205.6 305.0 184.7 287.7 175.0 276.0 C 165.3 264.3 165.3 264.0 175.0 250.0 Z" fill="none"/>
<path d="M 425.5 268 Q 495.5 306 433.5 334 Q 413.5 300 425.5 268 Z" fill="#c2a98f" opacity=".85"/><path d="M 458.90000000000003 372.1818181818182 Q 476.90000000000003 420.1818181818182 446.90000000000003 416.1818181818182 Q 442.90000000000003 388.1818181818182 458.90000000000003 372.1818181818182 Z" fill="#c2a98f" opacity=".8"/><path d="M 316.95000000000005 165.07692307692307 Q 298.95000000000005 262 316.95000000000005 345.38461538461536" fill="none" stroke="#33383a" stroke-width="2" opacity=".5"/>
<circle cx="275.2" cy="256" r="15" fill="none" stroke="#0c0f10" stroke-width="2.5"/><circle cx="275.2" cy="256" r="12" fill="#0c1112" stroke="none"/><circle cx="271.59999999999997" cy="252.4" r="3.84" fill="#cfe0e2" stroke="none"/>
</g></svg>