<svg xmlns="http://www.w3.org/2000/svg" viewBox="0 0 1200 520">
<defs>
<linearGradient id="gcr" x1="0" y1="0" x2="0" y2="1">
<stop offset="0" stop-color="#6e7560"/>
<stop offset=".5" stop-color="#969c80"/>
<stop offset="1" stop-color="#d6dbc4"/>
</linearGradient>
<clipPath id="ccr"><path d="M 175.0 250.0 C 183.3 235.7 200.1 207.7 225.1 190.0 C 250.1 172.3 278.0 153.0 325.3 144.0 C 372.6 135.0 445.0 133.0 509.0 136.0 C 573.0 139.0 649.6 150.3 709.4 162.0 C 769.2 173.7 826.3 194.3 868.0 206.0 C 909.8 217.7 936.2 225.3 959.9 232.0 C 983.6 238.7 1001.6 238.0 1010.0 246.0 C 1018.4 254.0 1018.4 271.7 1010.0 280.0 C 1001.6 288.3 983.6 288.7 959.9 296.0 C 936.2 303.3 909.8 312.3 868.0 324.0 C 826.3 335.7 769.2 356.3 709.4 366.0 C 649.6 375.7 573.0 382.0 509.0 382.0 C 445.0 382.0 372.6 376.7 325.3 366.0 C 278.0 355.3 250.1 333.0 225.1 318.0 C 200.1 303.0 183.3 287.3 175.0 276.0 C 166.7 264.7 166.7 264.3 175.0 250.0 Z"/></clipPath>

</defs>
<g stroke="#23271c" stroke-width="2.5" stroke-linejoin="round">
<path d="M 509.0 136.0 L 509.0 78.0 L 529.2785714285715 118.6 L 549.5571428571429 86.57619047619048 L 569.8357142857144 124.85619047619048 L 590.1142857142858 95.15238095238095 L 610.3928571428572 131.11238095238096 L 630.6714285714286 103.72857142857143 L 650.95 137.3685714285714 L 671.2285714285715 112.3047619047619 L 691.507142857143 143.6247619047619 L 711.7857142857142 121.2330827067669 L 732.0642857142857 150.2330827067669 L 752.3428571428572 135.79548872180453 L 772.6214285714286 162.4754887218045 L 792.9 150.35789473684213 L 813.1785714285714 174.7178947368421 L 792.9 185.1578947368421 Z" fill="#5f6552" opacity=".92"/><path d="M 592.5 375.3333333333333 Q 709.4 420.0 826.3000000000001 335.05263157894734 Z" fill="#5f6552" opacity=".9"/><g fill="#5f6552" opacity=".95"><path d="M 1004 234.0 L 1160 206 L 1103.0 262 L 1160 318 L 1004 290.0 Q 1040 262 1004 234.0 Z" /></g>
<path d="M 175.0 250.0 C 183.3 235.7 200.1 207.7 225.1 190.0 C 250.1 172.3 278.0 153.0 325.3 144.0 C 372.6 135.0 445.0 133.0 509.0 136.0 C 573.0 139.0 649.6 150.3 709.4 162.0 C 769.2 173.7 826.3 194.3 868.0 206.0 C 909.8 217.7 936.2 225.3 959.9 232.0 C 983.6 238.7 1001.6 238.0 1010.0 246.0 C 1018.4 254.0 1018.4 271.7 1010.0 280.0 C 1001.6 288.3 983.6 288.7 959.9 296.0 C 936.2 303.3 909.8 312.3 868.0 324.0 C 826.3 335.7 769.2 356.3 709.4 366.0 C 649.6 375.7 573.0 382.0 509.0 382.0 C 445.0 382.0 372.6 376.7 325.3 366.0 C 278.0 355.3 250.1 333.0 225.1 318.0 C 200.1 303.0 183.3 287.3 175.0 276.0 C 166.7 264.7 166.7 264.3 175.0 250.0 Z" fill="url(#gcr)"/>
<g clip-path="url(#ccr)" stroke="none"><ellipse cx="475" cy="348" rx="12" ry="15" fill="#1f2417" opacity="0.43"/><ellipse cx="487" cy="356" rx="13" ry="14" fill="#1f2417" opacity="0.54"/><ellipse cx="607" cy="261" rx="13" ry="16" fill="#1f2417" opacity="0.43"/><ellipse cx="479" cy="165" rx="14" ry="12" fill="#1f2417" opacity="0.67"/><ellipse cx="564" cy="188" rx="14" ry="18" fill="#1f2417" opacity="0.42"/><ellipse cx="704" cy="244" rx="21" ry="11" fill="#1f2417" opacity="0.61"/><ellipse cx="633" cy="288" rx="24" ry="14" fill="#1f2417" opacity="0.44"/><ellipse cx="380" cy="338" rx="18" ry="10" fill="#1f2417" opacity="0.68"/><ellipse cx="680" cy="302" rx="24" ry="11" fill="#1f2417" opacity="0.51"/><ellipse cx="855" cy="228" rx="22" ry="9" fill="#1f2417" opacity="0.61"/><ellipse cx="752" cy="329" rx="23" ry="13" fill="#1f2417" opacity="0.46"/><ellipse cx="430" cy="263" rx="18" ry="9" fill="#1f2417" opacity="0.67"/><ellipse cx="639" cy="297" rx="14" ry="10" fill="#1f2417" opacity="0.40"/><ellipse cx="543" cy="215" rx="17" ry="12" fill="#1f2417" opacity="0.65"/><ellipse cx="863" cy="234" rx="16" ry="10" fill="#1f2417" opacity="0.60"/><ellipse cx="912" cy="243" rx="22" ry="11" fill="#1f2417" opacity="0.40"/><ellipse cx="789" cy="244" rx="13" ry="12" fill="#1f2417" opacity="0.47"/><ellipse cx="582" cy="251" rx="17" ry="14" fill="#1f2417" opacity="0.49"/><ellipse cx="398" cy="180" rx="12" ry="13" fill="#1f2417" opacity="0.51"/><ellipse cx="814" cy="265" rx="21" ry="18" fill="#1f2417" opacity="0.42"/><ellipse cx="352" cy="191" rx="16" ry="14" fill="#1f2417" opacity="0.62"/><ellipse cx="547" cy="348" rx="10" ry="16" fill="#1f2417" opacity="0.46"/></g>
<path d="M 175.0 250.0 C 183.3 235.7 200.1 207.7 225.1 190.0 C 250.1 172.3 278.0 153.0 325.3 144.0 C 372.6 135.0 445.0 133.0 509.0 136.0 C 573.0 139.0 649.6 150.3 709.4 162.0 C 769.2 173.7 826.3 194.3 868.0 206.0 C 909.8 217.7 936.2 225.3 959.9 232.0 C 983.6 238.7 1001.6 238.0 1010.0 246.0 C 1018.4 254.0 1018.4 271.7 1010.0 280.0 C 1001.6 288.3 983.6 288.7 959.9 296.0 C 936.2 303.3 909.8 312.3 868.0 324.0 C 826.3 335.7 769.2 356.3 709.4 366.0 C 649.6 375.7 573.0 382.0 509.0 382.0 C 445.0 382.0 372.6 376.7 325.3 366.0 C 278.0 355.3 250.1 333.0 225.1 318.0 C 200.1 303.0 183.3 287.3 175.0 276.0 C 166.7 264.7 166.7 264.3 175.0 250.0 Z" fill="none"/>
<path d="M 425.5 268 Q 495.5 306 433.5 334 Q 413.5 300 425.5 268 Z" fill="#7e856b" opacity=".85"/><path d="M 458.90000000000003 373.6363636363636 Q 476.90000000000003 421.6363636363636 446.90000000000003 417.6363636363636 Q 442.90000000000003 389.6363636363636 458.90000000000003 373.6363636363636 Z" fill="#7e856b" opacity=".8"/><path d="M 316.95000000000005 157.83333333333331 Q 298.95000000000005 262 316.95000000000005 352.0" fill="none" stroke="#23271c" stroke-width="2" opacity=".5"/>
<circle cx="275.2" cy="256" r="17" fill="none" stroke="#0c0f10" stroke-width="2.5"/><circle cx="275.2" cy="256" r="14" fill="#0c1112" stroke="none"/><circle cx="271.0" cy="251.8" r="4.48" fill="#cfe0e2" stroke="none"/>
</g></svg>