<svg xmlns="http://www.w3.org/2000/svg" viewBox="0 0 1200 520">
<defs>
<linearGradient id="gco" x1="0" y1="0" x2="0" y2="1">
<stop offset="0" stop-color="#7c858c"/>
<stop offset=".5" stop-color="#a3acb1"/>
<stop offset="1" stop-color="#e0e4e4"/>
</linearGradient>
<clipPath id="cco"><path d="M 175.0 254.0 C 186.1 244.7 211.2 227.0 241.8 218.0 C 272.4 209.0 307.2 203.3 358.7 200.0 C 410.2 196.7 486.7 197.0 550.8 198.0 C 614.8 199.0 687.1 201.7 742.8 206.0 C 798.5 210.3 848.6 218.7 884.8 224.0 C 920.9 229.3 939.0 233.7 959.9 238.0 C 980.8 242.3 1001.6 243.7 1010.0 250.0 C 1018.4 256.3 1018.4 269.7 1010.0 276.0 C 1001.6 282.3 980.8 283.7 959.9 288.0 C 939.0 292.3 920.9 297.0 884.8 302.0 C 848.6 307.0 798.5 314.3 742.8 318.0 C 687.1 321.7 614.8 323.7 550.8 324.0 C 486.7 324.3 410.2 323.7 358.7 320.0 C 307.2 316.3 272.4 309.7 241.8 302.0 C 211.2 294.3 186.1 282.0 175.0 274.0 C 163.9 266.0 163.9 263.3 175.0 254.0 Z"/></clipPath>

</defs>
<g stroke="#2c3236" stroke-width="2.5" stroke-linejoin="round">
<path d="M 342.0 202.57142857142856 L 342.0 162.57142857142856 L 357.50714285714287 190.57142857142856 L 373.01428571428573 162.13664596273293 L 388.5214285714286 188.53664596273293 L 404.02857142857147 164.09937888198755 L 419.53571428571433 188.89937888198756 L 435.04285714285714 166.06211180124225 L 450.55 189.26211180124224 L 466.0571428571429 168.02484472049687 L 481.56428571428575 189.62484472049687 L 497.0714285714286 169.98757763975155 L 512.5785714285714 189.98757763975155 L 528.0857142857143 171.95031055900623 L 543.5928571428572 190.35031055900623 L 559.1 174.34782608695653 L 574.6071428571429 191.14782608695654 L 559.1 198.34782608695653 Z" fill="#6a737a" opacity=".92"/><path d="M 726.1 318.52173913043475 Q 792.9 354.3529411764706 859.6999999999999 304.8235294117647 Z" fill="#6a737a" opacity=".9"/><g fill="#6a737a" opacity=".95"><path d="M 1004 236.0 L 1160 210 L 1103.0 262 L 1160 314 L 1004 288.0 Q 1040 262 1004 236.0 Z" /></g>
<path d="M 175.0 254.0 C 186.1 244.7 211.2 227.0 241.8 218.0 C 272.4 209.0 307.2 203.3 358.7 200.0 C 410.2 196.7 486.7 197.0 550.8 198.0 C 614.8 199.0 687.1 201.7 742.8 206.0 C 798.5 210.3 848.6 218.7 884.8 224.0 C 920.9 229.3 939.0 233.7 959.9 238.0 C 980.8 242.3 1001.6 243.7 1010.0 250.0 C 1018.4 256.3 1018.4 269.7 1010.0 276.0 C 1001.6 282.3 980.8 283.7 959.9 288.0 C 939.0 292.3 920.9 297.0 884.8 302.0 C 848.6 307.0 798.5 314.3 742.8 318.0 C 687.1 321.7 614.8 323.7 550.8 324.0 C 486.7 324.3 410.2 323.7 358.7 320.0 C 307.2 316.3 272.4 309.7 241.8 302.0 C 211.2 294.3 186.1 282.0 175.0 274.0 C 163.9 266.0 163.9 263.3 175.0 254.0 Z" fill="url(#gco)"/>
<g clip-path="url(#cco)" stroke="none"><path d="M 342 211 l 40 60" stroke="#5b656b" stroke-width="5" opacity=".22" fill="none"/><path d="M 400 208 l 40 60" stroke="#5b656b" stroke-width="5" opacity=".22" fill="none"/><path d="M 459 207 l 40 60" stroke="#5b656b" stroke-width="5" opacity=".22" fill="none"/><path d="M 517 206 l 40 60" stroke="#5b656b" stroke-width="5" opacity=".22" fill="none"/><path d="M 576 207 l 40 60" stroke="#5b656b" stroke-width="5" opacity=".22" fill="none"/><path d="M 634 209 l 40 60" stroke="#5b656b" stroke-width="5" opacity=".22" fill="none"/><path d="M 693 212 l 40 60" stroke="#5b656b" stroke-width="5" opacity=".22" fill="none"/><path d="M 751 215 l 40 60" stroke="#5b656b" stroke-width="5" opacity=".22" fill="none"/></g>
<path d="M 175.0 254.0 C 186.1 244.7 211.2 227.0 241.8 218.0 C 272.4 209.0 307.2 203.3 358.7 200.0 C 410.2 196.7 486.7 197.0 550.8 198.0 C 614.8 199.0 687.1 201.7 742.8 206.0 C 798.5 210.3 848.6 218.7 884.8 224.0 C 920.9 229.3 939.0 233.7 959.9 238.0 C 980.8 242.3 1001.6 243.7 1010.0 250.0 C 1018.4 256.3 1018.4 269.7 1010.0 276.0 C 1001.6 282.3 980.8 283.7 959.9 288.0 C 939.0 292.3 920.9 297.0 884.8 302.0 C 848.6 307.0 798.5 314.3 742.8 318.0 C 687.1 321.7 614.8 323.7 550.8 324.0 C 486.7 324.3 410.2 323.7 358.7 320.0 C 307.2 316.3 272.4 309.7 241.8 302.0 C 211.2 294.3 186.1 282.0 175.0 274.0 C 163.9 266.0 163.9 263.3 175.0 254.0 Z" fill="none"/>
<path d="M 425.5 268 Q 495.5 306 433.5 334 Q 413.5 300 425.5 268 Z" fill="#889196" opacity=".85"/><path d="M 458.90000000000003 318.0869565217391 Q 476.90000000000003 366.0869565217391 446.90000000000003 362.0869565217391 Q 442.90000000000003 334.0869565217391 458.90000000000003 318.0869565217391 Z" fill="#889196" opacity=".8"/><path d="M 316.95000000000005 216.42857142857144 Q 298.95000000000005 262 316.95000000000005 303.57142857142856" fill="none" stroke="#2c3236" stroke-width="2" opacity=".5"/>
<circle cx="266.85" cy="256" r="16" fill="none" stroke="#0c0f10" stroke-width="2.5"/><circle cx="266.85" cy="256" r="13" fill="#0c1112" stroke="none"/><circle cx="262.95000000000005" cy="252.1" r="4.16" fill="#cfe0e2" stroke="none"/>
</g></svg>