<svg xmlns="http://www.w3.org/2000/svg" viewBox="0 0 1200 520">
<defs>
<linearGradient id="gsh" x1="0" y1="0" x2="0" y2="1">
<stop offset="0" stop-color="#7a1f24"/>
<stop offset=".5" stop-color="#a83b33"/>
<stop offset="1" stop-color="#d98a6a"/>
</linearGradient>
<clipPath id="csh"><path d="M 175.0 248.0 C 183.3 232.3 205.6 201.3 225.1 184.0 C 244.6 166.7 258.5 151.0 291.9 144.0 C 325.3 137.0 368.4 139.7 425.5 142.0 C 482.6 144.3 564.7 148.0 634.2 158.0 C 703.8 168.0 790.1 190.0 843.0 202.0 C 895.9 214.0 923.7 222.7 951.6 230.0 C 979.4 237.3 1000.3 237.7 1010.0 246.0 C 1019.7 254.3 1019.7 271.3 1010.0 280.0 C 1000.3 288.7 979.4 290.0 951.6 298.0 C 923.7 306.0 895.9 316.0 843.0 328.0 C 790.1 340.0 703.8 361.7 634.2 370.0 C 564.7 378.3 482.6 381.7 425.5 378.0 C 368.4 374.3 325.3 358.7 291.9 348.0 C 258.5 337.3 244.6 325.7 225.1 314.0 C 205.6 302.3 183.3 289.0 175.0 278.0 C 166.7 267.0 166.7 263.7 175.0 248.0 Z"/></clipPath>

</defs>
<g stroke="#2a0a0c" stroke-width="2.5" stroke-linejoin="round">
<path d="M 375.4 142.75 L 375.4 98.75 L 407.60714285714283 129.55 L 439.8142857142857 101.61142857142855 L 472.02142857142854 130.65142857142857 L 504.2285714285714 109.06285714285715 L 536.4357142857143 136.34285714285716 L 568.6428571428571 116.51428571428573 L 600.85 142.03428571428574 L 633.0571428571427 123.96571428571427 L 665.2642857142856 147.72571428571428 L 697.4714285714285 139.89714285714285 L 729.6785714285714 161.89714285714285 L 761.8857142857142 155.98857142857142 L 794.0928571428572 176.22857142857143 L 826.3000000000001 172.07999999999998 L 858.507142857143 190.56 L 826.3000000000001 198.48 Z" fill="#5a161a" opacity=".92"/><path d="M 692.7 358.24 Q 776.1999999999999 383.44 859.6999999999999 323.3846153846154 Z" fill="#5a161a" opacity=".9"/><g fill="#5a161a" opacity=".95"><path d="M 1004 223.5 Q 1160 192 1160 262 Q 1160 332 1004 300.5 Q 1032 262 1004 223.5 Z" /></g>
<path d="M 175.0 248.0 C 183.3 232.3 205.6 201.3 225.1 184.0 C 244.6 166.7 258.5 151.0 291.9 144.0 C 325.3 137.0 368.4 139.7 425.5 142.0 C 482.6 144.3 564.7 148.0 634.2 158.0 C 703.8 168.0 790.1 190.0 843.0 202.0 C 895.9 214.0 923.7 222.7 951.6 230.0 C 979.4 237.3 1000.3 237.7 1010.0 246.0 C 1019.7 254.3 1019.7 271.3 1010.0 280.0 C 1000.3 288.7 979.4 290.0 951.6 298.0 C 923.7 306.0 895.9 316.0 843.0 328.0 C 790.1 340.0 703.8 361.7 634.2 370.0 C 564.7 378.3 482.6 381.7 425.5 378.0 C 368.4 374.3 325.3 358.7 291.9 348.0 C 258.5 337.3 244.6 325.7 225.1 314.0 C 205.6 302.3 183.3 289.0 175.0 278.0 C 166.7 267.0 166.7 263.7 175.0 248.0 Z" fill="url(#gsh)"/>
<g clip-path="url(#csh)" stroke="none"><path d="M 175 142 L 392.1 132 L 392.1 392 L 175 382 Z" fill="#1a1012" opacity=".82"/><path d="M 776.1999999999999 142 L 1010 202 L 1010 322 L 776.1999999999999 382 Z" fill="#1a1012" opacity=".82"/><path d="M 171 302 q 60 40 130 36 l 0 30 q -80 6 -134 -22 Z" fill="#eadfce" opacity=".9"/></g>
<path d="M 175.0 248.0 C 183.3 232.3 205.6 201.3 225.1 184.0 C 244.6 166.7 258.5 151.0 291.9 144.0 C 325.3 137.0 368.4 139.7 425.5 142.0 C 482.6 144.3 564.7 148.0 634.2 158.0 C 703.8 168.0 790.1 190.0 843.0 202.0 C 895.9 214.0 923.7 222.7 951.6 230.0 C 979.4 237.3 1000.3 237.7 1010.0 246.0 C 1019.7 254.3 1019.7 271.3 1010.0 280.0 C 1000.3 288.7 979.4 290.0 951.6 298.0 C 923.7 306.0 895.9 316.0 843.0 328.0 C 790.1 340.0 703.8 361.7 634.2 370.0 C 564.7 378.3 482.6 381.7 425.5 378.0 C 368.4 374.3 325.3 358.7 291.9 348.0 C 258.5 337.3 244.6 325.7 225.1 314.0 C 205.6 302.3 183.3 289.0 175.0 278.0 C 166.7 267.0 166.7 263.7 175.0 248.0 Z" fill="none"/>
<path d="M 425.5 268 Q 495.5 306 433.5 334 Q 413.5 300 425.5 268 Z" fill="#7a2520" opacity=".85"/><path d="M 458.90000000000003 372.72 Q 476.90000000000003 420.72 446.90000000000003 416.72 Q 442.90000000000003 388.72 458.90000000000003 372.72 Z" fill="#7a2520" opacity=".8"/><path d="M 316.95000000000005 153.625 Q 298.95000000000005 262 316.95000000000005 343.625" fill="none" stroke="#2a0a0c" stroke-width="2" opacity=".5"/>
<circle cx="258.5" cy="256" r="15" fill="none" stroke="#0c0f10" stroke-width="2.5"/><circle cx="258.5" cy="256" r="12" fill="#0c1112" stroke="none"/><circle cx="254.9" cy="252.4" r="3.84" fill="#cfe0e2" stroke="none"/>
</g></svg>