<svg xmlns="http://www.w3.org/2000/svg" viewBox="0 0 1200 520">
<defs><linearGradient id="ghb" x1="0" y1="0" x2="0" y2="1">
<stop offset="0" stop-color="#5a4a32"/><stop offset="1" stop-color="#8a7553"/></linearGradient>
<clipPath id="chb"><path d="M 175.0 254.0 C 186.1 241.0 211.2 210.7 241.8 192.0 C 272.4 173.3 300.2 155.3 358.7 142.0 C 417.1 128.7 514.6 111.3 592.5 112.0 C 670.4 112.7 766.5 131.0 826.3 146.0 C 886.1 161.0 920.9 185.3 951.6 202.0 C 982.2 218.7 1000.3 233.0 1010.0 246.0 C 1019.7 259.0 1019.7 266.3 1010.0 280.0 C 1000.3 293.7 982.2 311.0 951.6 328.0 C 920.9 345.0 886.1 368.0 826.3 382.0 C 766.5 396.0 670.4 412.3 592.5 412.0 C 514.6 411.7 417.1 395.0 358.7 380.0 C 300.2 365.0 272.4 340.3 241.8 322.0 C 211.2 303.7 186.1 281.3 175.0 270.0 C 163.9 258.7 163.9 267.0 175.0 254.0 Z"/></clipPath></defs>
<g stroke="#241a0e" stroke-width="2.5" stroke-linejoin="round">
<line x1="233" y1="200" x2="233" y2="174" stroke="#4a3c28" stroke-width="6" opacity=".8"/><line x1="252" y1="188" x2="252" y2="162" stroke="#4a3c28" stroke-width="6" opacity=".8"/><line x1="271" y1="179" x2="271" y2="153" stroke="#4a3c28" stroke-width="6" opacity=".8"/><line x1="290" y1="171" x2="290" y2="145" stroke="#4a3c28" stroke-width="6" opacity=".8"/><line x1="309" y1="163" x2="309" y2="137" stroke="#4a3c28" stroke-width="6" opacity=".8"/><line x1="328" y1="155" x2="328" y2="129" stroke="#4a3c28" stroke-width="6" opacity=".8"/><line x1="346" y1="147" x2="346" y2="121" stroke="#4a3c28" stroke-width="6" opacity=".8"/><line x1="365" y1="141" x2="365" y2="115" stroke="#4a3c28" stroke-width="6" opacity=".8"/><line x1="384" y1="139" x2="384" y2="113" stroke="#4a3c28" stroke-width="6" opacity=".8"/><line x1="403" y1="136" x2="403" y2="110" stroke="#4a3c28" stroke-width="6" opacity=".8"/><line x1="422" y1="134" x2="422" y2="108" stroke="#4a3c28" stroke-width="6" opacity=".8"/><line x1="441" y1="131" x2="441" y2="105" stroke="#4a3c28" stroke-width="6" opacity=".8"/><line x1="460" y1="129" x2="460" y2="103" stroke="#4a3c28" stroke-width="6" opacity=".8"/><line x1="478" y1="127" x2="478" y2="101" stroke="#4a3c28" stroke-width="6" opacity=".8"/><line x1="497" y1="124" x2="497" y2="98" stroke="#4a3c28" stroke-width="6" opacity=".8"/><line x1="516" y1="122" x2="516" y2="96" stroke="#4a3c28" stroke-width="6" opacity=".8"/><line x1="535" y1="119" x2="535" y2="93" stroke="#4a3c28" stroke-width="6" opacity=".8"/><line x1="554" y1="117" x2="554" y2="91" stroke="#4a3c28" stroke-width="6" opacity=".8"/><line x1="573" y1="115" x2="573" y2="89" stroke="#4a3c28" stroke-width="6" opacity=".8"/><line x1="591" y1="112" x2="591" y2="86" stroke="#4a3c28" stroke-width="6" opacity=".8"/><line x1="610" y1="115" x2="610" y2="89" stroke="#4a3c28" stroke-width="6" opacity=".8"/><line x1="629" y1="117" x2="629" y2="91" stroke="#4a3c28" stroke-width="6" opacity=".8"/><line x1="648" y1="120" x2="648" y2="94" stroke="#4a3c28" stroke-width="6" opacity=".8"/><line x1="667" y1="123" x2="667" y2="97" stroke="#4a3c28" stroke-width="6" opacity=".8"/><line x1="686" y1="126" x2="686" y2="100" stroke="#4a3c28" stroke-width="6" opacity=".8"/><line x1="704" y1="128" x2="704" y2="102" stroke="#4a3c28" stroke-width="6" opacity=".8"/><line x1="723" y1="131" x2="723" y2="105" stroke="#4a3c28" stroke-width="6" opacity=".8"/><line x1="742" y1="134" x2="742" y2="108" stroke="#4a3c28" stroke-width="6" opacity=".8"/><line x1="761" y1="137" x2="761" y2="111" stroke="#4a3c28" stroke-width="6" opacity=".8"/><line x1="780" y1="139" x2="780" y2="113" stroke="#4a3c28" stroke-width="6" opacity=".8"/><line x1="799" y1="142" x2="799" y2="116" stroke="#4a3c28" stroke-width="6" opacity=".8"/><line x1="818" y1="145" x2="818" y2="119" stroke="#4a3c28" stroke-width="6" opacity=".8"/><line x1="836" y1="150" x2="836" y2="124" stroke="#4a3c28" stroke-width="6" opacity=".8"/><line x1="855" y1="159" x2="855" y2="133" stroke="#4a3c28" stroke-width="6" opacity=".8"/><line x1="874" y1="167" x2="874" y2="141" stroke="#4a3c28" stroke-width="6" opacity=".8"/><line x1="893" y1="176" x2="893" y2="150" stroke="#4a3c28" stroke-width="6" opacity=".8"/><line x1="912" y1="184" x2="912" y2="158" stroke="#4a3c28" stroke-width="6" opacity=".8"/><line x1="931" y1="193" x2="931" y2="167" stroke="#4a3c28" stroke-width="6" opacity=".8"/><line x1="949" y1="201" x2="949" y2="175" stroke="#4a3c28" stroke-width="6" opacity=".8"/><line x1="968" y1="215" x2="968" y2="189" stroke="#4a3c28" stroke-width="6" opacity=".8"/><line x1="233" y1="316" x2="233" y2="342" stroke="#4a3c28" stroke-width="6" opacity=".8"/><line x1="252" y1="327" x2="252" y2="353" stroke="#4a3c28" stroke-width="6" opacity=".8"/><line x1="271" y1="337" x2="271" y2="363" stroke="#4a3c28" stroke-width="6" opacity=".8"/><line x1="290" y1="346" x2="290" y2="372" stroke="#4a3c28" stroke-width="6" opacity=".8"/><line x1="309" y1="355" x2="309" y2="381" stroke="#4a3c28" stroke-width="6" opacity=".8"/><line x1="328" y1="365" x2="328" y2="391" stroke="#4a3c28" stroke-width="6" opacity=".8"/><line x1="346" y1="374" x2="346" y2="400" stroke="#4a3c28" stroke-width="6" opacity=".8"/><line x1="365" y1="381" x2="365" y2="407" stroke="#4a3c28" stroke-width="6" opacity=".8"/><line x1="384" y1="383" x2="384" y2="409" stroke="#4a3c28" stroke-width="6" opacity=".8"/><line x1="403" y1="386" x2="403" y2="412" stroke="#4a3c28" stroke-width="6" opacity=".8"/><line x1="422" y1="389" x2="422" y2="415" stroke="#4a3c28" stroke-width="6" opacity=".8"/><line x1="441" y1="391" x2="441" y2="417" stroke="#4a3c28" stroke-width="6" opacity=".8"/><line x1="460" y1="394" x2="460" y2="420" stroke="#4a3c28" stroke-width="6" opacity=".8"/><line x1="478" y1="396" x2="478" y2="422" stroke="#4a3c28" stroke-width="6" opacity=".8"/><line x1="497" y1="399" x2="497" y2="425" stroke="#4a3c28" stroke-width="6" opacity=".8"/><line x1="516" y1="402" x2="516" y2="428" stroke="#4a3c28" stroke-width="6" opacity=".8"/><line x1="535" y1="404" x2="535" y2="430" stroke="#4a3c28" stroke-width="6" opacity=".8"/><line x1="554" y1="407" x2="554" y2="433" stroke="#4a3c28" stroke-width="6" opacity=".8"/><line x1="573" y1="409" x2="573" y2="435" stroke="#4a3c28" stroke-width="6" opacity=".8"/><line x1="591" y1="412" x2="591" y2="438" stroke="#4a3c28" stroke-width="6" opacity=".8"/><line x1="610" y1="410" x2="610" y2="436" stroke="#4a3c28" stroke-width="6" opacity=".8"/><line x1="629" y1="407" x2="629" y2="433" stroke="#4a3c28" stroke-width="6" opacity=".8"/><line x1="648" y1="405" x2="648" y2="431" stroke="#4a3c28" stroke-width="6" opacity=".8"/><line x1="667" y1="402" x2="667" y2="428" stroke="#4a3c28" stroke-width="6" opacity=".8"/><line x1="686" y1="400" x2="686" y2="426" stroke="#4a3c28" stroke-width="6" opacity=".8"/><line x1="704" y1="398" x2="704" y2="424" stroke="#4a3c28" stroke-width="6" opacity=".8"/><line x1="723" y1="395" x2="723" y2="421" stroke="#4a3c28" stroke-width="6" opacity=".8"/><line x1="742" y1="393" x2="742" y2="419" stroke="#4a3c28" stroke-width="6" opacity=".8"/><line x1="761" y1="390" x2="761" y2="416" stroke="#4a3c28" stroke-width="6" opacity=".8"/><line x1="780" y1="388" x2="780" y2="414" stroke="#4a3c28" stroke-width="6" opacity=".8"/><line x1="799" y1="386" x2="799" y2="412" stroke="#4a3c28" stroke-width="6" opacity=".8"/><line x1="818" y1="383" x2="818" y2="409" stroke="#4a3c28" stroke-width="6" opacity=".8"/><line x1="836" y1="378" x2="836" y2="404" stroke="#4a3c28" stroke-width="6" opacity=".8"/><line x1="855" y1="370" x2="855" y2="396" stroke="#4a3c28" stroke-width="6" opacity=".8"/><line x1="874" y1="361" x2="874" y2="387" stroke="#4a3c28" stroke-width="6" opacity=".8"/><line x1="893" y1="353" x2="893" y2="379" stroke="#4a3c28" stroke-width="6" opacity=".8"/><line x1="912" y1="345" x2="912" y2="371" stroke="#4a3c28" stroke-width="6" opacity=".8"/><line x1="931" y1="337" x2="931" y2="363" stroke="#4a3c28" stroke-width="6" opacity=".8"/><line x1="949" y1="329" x2="949" y2="355" stroke="#4a3c28" stroke-width="6" opacity=".8"/><line x1="968" y1="314" x2="968" y2="340" stroke="#4a3c28" stroke-width="6" opacity=".8"/><g fill="#4a3c28" opacity=".95"><path d="M 1004 223.5 Q 1130 192 1130 262 Q 1130 332 1004 300.5 Q 1032 262 1004 223.5 Z" /></g>
<path d="M 175.0 254.0 C 186.1 241.0 211.2 210.7 241.8 192.0 C 272.4 173.3 300.2 155.3 358.7 142.0 C 417.1 128.7 514.6 111.3 592.5 112.0 C 670.4 112.7 766.5 131.0 826.3 146.0 C 886.1 161.0 920.9 185.3 951.6 202.0 C 982.2 218.7 1000.3 233.0 1010.0 246.0 C 1019.7 259.0 1019.7 266.3 1010.0 280.0 C 1000.3 293.7 982.2 311.0 951.6 328.0 C 920.9 345.0 886.1 368.0 826.3 382.0 C 766.5 396.0 670.4 412.3 592.5 412.0 C 514.6 411.7 417.1 395.0 358.7 380.0 C 300.2 365.0 272.4 340.3 241.8 322.0 C 211.2 303.7 186.1 281.3 175.0 270.0 C 163.9 258.7 163.9 267.0 175.0 254.0 Z" fill="url(#ghb)"/>
<g clip-path="url(#chb)" stroke="none"><circle cx="605" cy="275" r="17" fill="#3a2c18" opacity="0.66"/><circle cx="639" cy="280" r="8" fill="#3a2c18" opacity="0.68"/><circle cx="715" cy="318" r="7" fill="#3a2c18" opacity="0.61"/><circle cx="381" cy="314" r="14" fill="#3a2c18" opacity="0.51"/><circle cx="932" cy="311" r="14" fill="#3a2c18" opacity="0.72"/><circle cx="423" cy="175" r="12" fill="#3a2c18" opacity="0.52"/><circle cx="443" cy="214" r="6" fill="#3a2c18" opacity="0.66"/><circle cx="598" cy="334" r="12" fill="#3a2c18" opacity="0.72"/><circle cx="634" cy="295" r="11" fill="#3a2c18" opacity="0.60"/><circle cx="942" cy="312" r="16" fill="#3a2c18" opacity="0.75"/><circle cx="520" cy="209" r="9" fill="#3a2c18" opacity="0.52"/><circle cx="799" cy="247" r="16" fill="#3a2c18" opacity="0.64"/><circle cx="917" cy="303" r="6" fill="#3a2c18" opacity="0.57"/><circle cx="888" cy="261" r="18" fill="#3a2c18" opacity="0.64"/><circle cx="370" cy="283" r="15" fill="#3a2c18" opacity="0.59"/><circle cx="379" cy="233" r="18" fill="#3a2c18" opacity="0.77"/><circle cx="398" cy="217" r="7" fill="#3a2c18" opacity="0.52"/><circle cx="818" cy="210" r="13" fill="#3a2c18" opacity="0.66"/><circle cx="443" cy="304" r="8" fill="#3a2c18" opacity="0.73"/><circle cx="397" cy="247" r="9" fill="#3a2c18" opacity="0.59"/><circle cx="925" cy="296" r="10" fill="#3a2c18" opacity="0.81"/><circle cx="455" cy="242" r="16" fill="#3a2c18" opacity="0.72"/><circle cx="387" cy="345" r="9" fill="#3a2c18" opacity="0.59"/><circle cx="803" cy="235" r="10" fill="#3a2c18" opacity="0.53"/><circle cx="381" cy="275" r="9" fill="#3a2c18" opacity="0.71"/><circle cx="555" cy="252" r="18" fill="#3a2c18" opacity="0.67"/><circle cx="680" cy="334" r="8" fill="#3a2c18" opacity="0.55"/><circle cx="887" cy="305" r="9" fill="#3a2c18" opacity="0.57"/><circle cx="782" cy="340" r="8" fill="#3a2c18" opacity="0.83"/><circle cx="870" cy="279" r="11" fill="#3a2c18" opacity="0.54"/><circle cx="349" cy="335" r="9" fill="#3a2c18" opacity="0.75"/><circle cx="484" cy="323" r="13" fill="#3a2c18" opacity="0.60"/><circle cx="434" cy="301" r="7" fill="#3a2c18" opacity="0.58"/><circle cx="671" cy="331" r="13" fill="#3a2c18" opacity="0.60"/><circle cx="892" cy="228" r="6" fill="#3a2c18" opacity="0.59"/><circle cx="601" cy="170" r="8" fill="#3a2c18" opacity="0.63"/><circle cx="679" cy="191" r="10" fill="#3a2c18" opacity="0.81"/><circle cx="931" cy="281" r="14" fill="#3a2c18" opacity="0.70"/><circle cx="412" cy="179" r="6" fill="#3a2c18" opacity="0.82"/><circle cx="758" cy="346" r="6" fill="#3a2c18" opacity="0.72"/><circle cx="623" cy="309" r="10" fill="#3a2c18" opacity="0.85"/><circle cx="372" cy="269" r="15" fill="#3a2c18" opacity="0.82"/><circle cx="781" cy="299" r="16" fill="#3a2c18" opacity="0.82"/><circle cx="543" cy="299" r="17" fill="#3a2c18" opacity="0.80"/><circle cx="583" cy="322" r="16" fill="#3a2c18" opacity="0.70"/><circle cx="711" cy="241" r="13" fill="#3a2c18" opacity="0.71"/><circle cx="710" cy="308" r="6" fill="#22150a" opacity="0.83"/><circle cx="782" cy="337" r="3" fill="#22150a" opacity="0.66"/><circle cx="908" cy="282" r="7" fill="#22150a" opacity="0.54"/><circle cx="615" cy="210" r="5" fill="#22150a" opacity="0.70"/><circle cx="333" cy="218" r="4" fill="#22150a" opacity="0.82"/><circle cx="798" cy="206" r="6" fill="#22150a" opacity="0.55"/><circle cx="707" cy="193" r="3" fill="#22150a" opacity="0.80"/><circle cx="455" cy="209" r="7" fill="#22150a" opacity="0.81"/><circle cx="504" cy="351" r="5" fill="#22150a" opacity="0.74"/><circle cx="452" cy="342" r="6" fill="#22150a" opacity="0.84"/><circle cx="878" cy="238" r="4" fill="#22150a" opacity="0.56"/><circle cx="415" cy="184" r="4" fill="#22150a" opacity="0.71"/><circle cx="327" cy="286" r="4" fill="#22150a" opacity="0.61"/><circle cx="831" cy="261" r="4" fill="#22150a" opacity="0.67"/><circle cx="761" cy="185" r="7" fill="#22150a" opacity="0.51"/><circle cx="789" cy="323" r="3" fill="#22150a" opacity="0.78"/><circle cx="552" cy="278" r="3" fill="#22150a" opacity="0.52"/><circle cx="437" cy="344" r="4" fill="#22150a" opacity="0.76"/><circle cx="900" cy="318" r="4" fill="#22150a" opacity="0.62"/><circle cx="650" cy="317" r="3" fill="#22150a" opacity="0.76"/><circle cx="818" cy="324" r="3" fill="#22150a" opacity="0.83"/><circle cx="382" cy="234" r="5" fill="#22150a" opacity="0.82"/></g>
<path d="M 175.0 254.0 C 186.1 241.0 211.2 210.7 241.8 192.0 C 272.4 173.3 300.2 155.3 358.7 142.0 C 417.1 128.7 514.6 111.3 592.5 112.0 C 670.4 112.7 766.5 131.0 826.3 146.0 C 886.1 161.0 920.9 185.3 951.6 202.0 C 982.2 218.7 1000.3 233.0 1010.0 246.0 C 1019.7 259.0 1019.7 266.3 1010.0 280.0 C 1000.3 293.7 982.2 311.0 951.6 328.0 C 920.9 345.0 886.1 368.0 826.3 382.0 C 766.5 396.0 670.4 412.3 592.5 412.0 C 514.6 411.7 417.1 395.0 358.7 380.0 C 300.2 365.0 272.4 340.3 241.8 322.0 C 211.2 303.7 186.1 281.3 175.0 270.0 C 163.9 258.7 163.9 267.0 175.0 254.0 Z" fill="none"/>
<path d="M 173 268 q -26 4 -30 22 q 20 2 34 -6" fill="#8a7553" stroke="#241a0e" stroke-width="2"/><circle cx="275.2" cy="228" r="14" fill="none" stroke="#0c0f10" stroke-width="2.5"/><circle cx="275.2" cy="228" r="11" fill="#0c1112" stroke="none"/><circle cx="271.9" cy="224.7" r="3.52" fill="#cfe0e2" stroke="none"/><circle cx="325.29999999999995" cy="250" r="14" fill="none" stroke="#0c0f10" stroke-width="2.5"/><circle cx="325.29999999999995" cy="250" r="11" fill="#0c1112" stroke="none"/><circle cx="321.99999999999994" cy="246.7" r="3.52" fill="#cfe0e2" stroke="none"/></g></svg>