<svg xmlns="http://www.w3.org/2000/svg" viewBox="0 0 1200 520">
<defs>
<linearGradient id="gcc" x1="0" y1="0" x2="0" y2="1">
<stop offset="0" stop-color="#5d6358"/>
<stop offset=".5" stop-color="#838877"/>
<stop offset="1" stop-color="#cdd0bd"/>
</linearGradient>
<clipPath id="ccc"><path d="M 175.0 252.0 C 183.3 242.0 202.8 226.0 225.1 216.0 C 247.4 206.0 266.9 196.3 308.6 192.0 C 350.4 187.7 414.4 188.3 475.6 190.0 C 536.8 191.7 612.0 196.3 676.0 202.0 C 740.0 207.7 813.8 218.0 859.7 224.0 C 905.6 230.0 926.5 233.7 951.6 238.0 C 976.6 242.3 1000.3 243.7 1010.0 250.0 C 1019.7 256.3 1019.7 269.3 1010.0 276.0 C 1000.3 282.7 976.6 284.3 951.6 290.0 C 926.5 295.7 905.6 302.0 859.7 310.0 C 813.8 318.0 740.0 331.0 676.0 338.0 C 612.0 345.0 536.8 350.7 475.6 352.0 C 414.4 353.3 350.4 352.3 308.6 346.0 C 266.9 339.7 247.4 325.7 225.1 314.0 C 202.8 302.3 183.3 286.3 175.0 276.0 C 166.7 265.7 166.7 262.0 175.0 252.0 Z"/></clipPath>

</defs>
<g stroke="#222419" stroke-width="2.5" stroke-linejoin="round">
<path d="M 358.7 191.4 L 358.7 147.4 L 365.85714285714283 178.20000000000002 L 373.01428571428573 149.74285714285713 L 380.1714285714286 178.78285714285715 L 387.3285714285714 152.08571428571432 L 394.48571428571427 179.36571428571432 L 401.64285714285717 154.42857142857144 L 408.8 179.94857142857146 L 415.9571428571429 156.7714285714286 L 423.11428571428576 180.5314285714286 L 430.2714285714286 159.1142857142857 L 437.42857142857144 181.11428571428573 L 444.5857142857143 161.45714285714286 L 451.74285714285713 181.69714285714286 L 458.90000000000003 163.79999999999998 L 466.0571428571429 182.28 L 458.90000000000003 190.2 Z" fill="#565b50" opacity=".92"/><path d="M 692.7 335.45454545454544 Q 784.55 367.45454545454544 876.4 306.3636363636364 Z" fill="#565b50" opacity=".9"/><g fill="#565b50" opacity=".95"><path d="M 1004 230.0 L 1160 198 L 1103.0 262 L 1160 326 L 1004 294.0 Q 1040 262 1004 230.0 Z" /></g>
<path d="M 175.0 252.0 C 183.3 242.0 202.8 226.0 225.1 216.0 C 247.4 206.0 266.9 196.3 308.6 192.0 C 350.4 187.7 414.4 188.3 475.6 190.0 C 536.8 191.7 612.0 196.3 676.0 202.0 C 740.0 207.7 813.8 218.0 859.7 224.0 C 905.6 230.0 926.5 233.7 951.6 238.0 C 976.6 242.3 1000.3 243.7 1010.0 250.0 C 1019.7 256.3 1019.7 269.3 1010.0 276.0 C 1000.3 282.7 976.6 284.3 951.6 290.0 C 926.5 295.7 905.6 302.0 859.7 310.0 C 813.8 318.0 740.0 331.0 676.0 338.0 C 612.0 345.0 536.8 350.7 475.6 352.0 C 414.4 353.3 350.4 352.3 308.6 346.0 C 266.9 339.7 247.4 325.7 225.1 314.0 C 202.8 302.3 183.3 286.3 175.0 276.0 C 166.7 265.7 166.7 262.0 175.0 252.0 Z" fill="url(#gcc)"/>
<g clip-path="url(#ccc)" stroke="none"><circle cx="619" cy="286" r="7" fill="#262920" opacity="0.55"/><circle cx="332" cy="256" r="5" fill="#262920" opacity="0.78"/><circle cx="752" cy="277" r="6" fill="#262920" opacity="0.73"/><circle cx="415" cy="264" r="5" fill="#262920" opacity="0.82"/><circle cx="362" cy="305" r="4" fill="#262920" opacity="0.74"/><circle cx="534" cy="260" r="7" fill="#262920" opacity="0.51"/><circle cx="363" cy="315" r="6" fill="#262920" opacity="0.53"/><circle cx="935" cy="283" r="4" fill="#262920" opacity="0.65"/><circle cx="409" cy="249" r="6" fill="#262920" opacity="0.56"/><circle cx="756" cy="233" r="5" fill="#262920" opacity="0.79"/><circle cx="573" cy="262" r="6" fill="#262920" opacity="0.67"/><circle cx="563" cy="221" r="7" fill="#262920" opacity="0.84"/><circle cx="929" cy="272" r="5" fill="#262920" opacity="0.63"/><circle cx="752" cy="283" r="4" fill="#262920" opacity="0.58"/><circle cx="550" cy="272" r="7" fill="#262920" opacity="0.68"/><circle cx="343" cy="305" r="6" fill="#262920" opacity="0.68"/><circle cx="463" cy="263" r="6" fill="#262920" opacity="0.77"/><circle cx="389" cy="275" r="5" fill="#262920" opacity="0.74"/><circle cx="348" cy="245" r="5" fill="#262920" opacity="0.72"/><circle cx="357" cy="265" r="5" fill="#262920" opacity="0.60"/><circle cx="620" cy="316" r="6" fill="#262920" opacity="0.83"/><circle cx="429" cy="318" r="5" fill="#262920" opacity="0.57"/><path d="M 659.3 201.0 q 40 -18 70 -2 l -4 12 q -34 -8 -66 4 Z" fill="#565b50" opacity=".9"/></g>
<path d="M 175.0 252.0 C 183.3 242.0 202.8 226.0 225.1 216.0 C 247.4 206.0 266.9 196.3 308.6 192.0 C 350.4 187.7 414.4 188.3 475.6 190.0 C 536.8 191.7 612.0 196.3 676.0 202.0 C 740.0 207.7 813.8 218.0 859.7 224.0 C 905.6 230.0 926.5 233.7 951.6 238.0 C 976.6 242.3 1000.3 243.7 1010.0 250.0 C 1019.7 256.3 1019.7 269.3 1010.0 276.0 C 1000.3 282.7 976.6 284.3 951.6 290.0 C 926.5 295.7 905.6 302.0 859.7 310.0 C 813.8 318.0 740.0 331.0 676.0 338.0 C 612.0 345.0 536.8 350.7 475.6 352.0 C 414.4 353.3 350.4 352.3 308.6 346.0 C 266.9 339.7 247.4 325.7 225.1 314.0 C 202.8 302.3 183.3 286.3 175.0 276.0 C 166.7 265.7 166.7 262.0 175.0 252.0 Z" fill="none"/>
<path d="M 358.7 268 Q 428.7 306 366.7 334 Q 346.7 300 358.7 268 Z" fill="#727767" opacity=".85"/><path d="M 458.90000000000003 347.4 Q 476.90000000000003 395.4 446.90000000000003 391.4 Q 442.90000000000003 363.4 458.90000000000003 347.4 Z" fill="#727767" opacity=".8"/><path d="M 316.95000000000005 201.9 Q 298.95000000000005 262 316.95000000000005 336.3" fill="none" stroke="#222419" stroke-width="2" opacity=".5"/><path d="M 179 282.6666666666667 q -30 18 -58 30" fill="none" stroke="#222419" stroke-width="2.4" opacity=".75"/><path d="M 179 282.6666666666667 q -38 28 -68 46" fill="none" stroke="#222419" stroke-width="2.4" opacity=".75"/><path d="M 179 282.6666666666667 q -46 38 -78 62" fill="none" stroke="#222419" stroke-width="2.4" opacity=".75"/><path d="M 179 282.6666666666667 q -54 48 -88 78" fill="none" stroke="#222419" stroke-width="2.4" opacity=".75"/>
<circle cx="275.2" cy="256" r="13" fill="none" stroke="#0c0f10" stroke-width="2.5"/><circle cx="275.2" cy="256" r="10" fill="#0c1112" stroke="none"/><circle cx="272.2" cy="253.0" r="3.2" fill="#cfe0e2" stroke="none"/>
</g></svg>