<svg xmlns="http://www.w3.org/2000/svg" viewBox="0 0 1200 520">
<defs>
<linearGradient id="gkb" x1="0" y1="0" x2="0" y2="1">
<stop offset="0" stop-color="#54562a"/>
<stop offset=".5" stop-color="#7c7d44"/>
<stop offset="1" stop-color="#c8c79a"/>
</linearGradient>
<clipPath id="ckb"><path d="M 175.0 252.0 C 184.7 242.3 208.4 228.0 233.4 216.0 C 258.5 204.0 282.2 188.3 325.3 180.0 C 368.4 171.7 431.1 166.3 492.3 166.0 C 553.5 165.7 631.5 170.7 692.7 178.0 C 753.9 185.3 816.6 201.0 859.7 210.0 C 902.8 219.0 926.5 226.0 951.6 232.0 C 976.6 238.0 1000.3 238.0 1010.0 246.0 C 1019.7 254.0 1019.7 271.7 1010.0 280.0 C 1000.3 288.3 976.6 290.0 951.6 296.0 C 926.5 302.0 902.8 308.3 859.7 316.0 C 816.6 323.7 753.9 336.3 692.7 342.0 C 631.5 347.7 553.5 351.3 492.3 350.0 C 431.1 348.7 368.4 342.0 325.3 334.0 C 282.2 326.0 258.5 312.0 233.4 302.0 C 208.4 292.0 184.7 282.3 175.0 274.0 C 165.3 265.7 165.3 261.7 175.0 252.0 Z"/></clipPath>

</defs>
<g stroke="#23230f" stroke-width="2.5" stroke-linejoin="round">
<path d="M 392.1 174.4 L 392.1 116.4 L 420.72857142857146 157.0 L 449.35714285714283 114.91428571428571 L 477.98571428571427 153.1942857142857 L 506.6142857142857 115.4857142857143 L 535.2428571428571 151.4457142857143 L 563.8714285714286 122.22857142857143 L 592.5 155.8685714285714 L 621.1285714285714 128.9714285714286 L 649.7571428571428 160.29142857142858 L 678.3857142857144 135.71428571428572 L 707.0142857142857 164.71428571428572 L 735.6428571428571 148.11428571428573 L 764.2714285714285 174.7942857142857 L 792.9 162.39999999999998 L 821.5285714285714 186.76 L 792.9 197.2 Z" fill="#494a28" opacity=".92"/><path d="M 726.1 336.8 Q 792.9 368.4 859.6999999999999 316.0 Z" fill="#494a28" opacity=".9"/><g fill="#494a28" opacity=".95"><path d="M 1004 229.0 L 1160 196 L 1103.0 262 L 1160 328 L 1004 295.0 Q 1040 262 1004 229.0 Z" /></g>
<path d="M 175.0 252.0 C 184.7 242.3 208.4 228.0 233.4 216.0 C 258.5 204.0 282.2 188.3 325.3 180.0 C 368.4 171.7 431.1 166.3 492.3 166.0 C 553.5 165.7 631.5 170.7 692.7 178.0 C 753.9 185.3 816.6 201.0 859.7 210.0 C 902.8 219.0 926.5 226.0 951.6 232.0 C 976.6 238.0 1000.3 238.0 1010.0 246.0 C 1019.7 254.0 1019.7 271.7 1010.0 280.0 C 1000.3 288.3 976.6 290.0 951.6 296.0 C 926.5 302.0 902.8 308.3 859.7 316.0 C 816.6 323.7 753.9 336.3 692.7 342.0 C 631.5 347.7 553.5 351.3 492.3 350.0 C 431.1 348.7 368.4 342.0 325.3 334.0 C 282.2 326.0 258.5 312.0 233.4 302.0 C 208.4 292.0 184.7 282.3 175.0 274.0 C 165.3 265.7 165.3 261.7 175.0 252.0 Z" fill="url(#gkb)"/>
<g clip-path="url(#ckb)" stroke="none"><circle cx="471" cy="208" r="11" fill="#d8d6a6" opacity="0.55"/><circle cx="366" cy="246" r="15" fill="#d8d6a6" opacity="0.78"/><circle cx="798" cy="237" r="12" fill="#d8d6a6" opacity="0.60"/><circle cx="432" cy="210" r="9" fill="#d8d6a6" opacity="0.82"/><circle cx="837" cy="287" r="14" fill="#d8d6a6" opacity="0.57"/><circle cx="517" cy="274" r="14" fill="#d8d6a6" opacity="0.80"/><circle cx="869" cy="234" r="12" fill="#d8d6a6" opacity="0.74"/><circle cx="638" cy="221" r="11" fill="#d8d6a6" opacity="0.53"/><circle cx="903" cy="286" r="12" fill="#d8d6a6" opacity="0.61"/><circle cx="887" cy="268" r="15" fill="#d8d6a6" opacity="0.80"/><circle cx="639" cy="249" r="12" fill="#d8d6a6" opacity="0.65"/><circle cx="425" cy="234" r="14" fill="#d8d6a6" opacity="0.52"/><circle cx="354" cy="271" r="10" fill="#d8d6a6" opacity="0.69"/><circle cx="616" cy="240" r="16" fill="#d8d6a6" opacity="0.57"/><circle cx="580" cy="222" r="13" fill="#d8d6a6" opacity="0.60"/><circle cx="545" cy="289" r="10" fill="#d8d6a6" opacity="0.70"/><circle cx="884" cy="237" r="8" fill="#d8d6a6" opacity="0.58"/><circle cx="798" cy="272" r="9" fill="#d8d6a6" opacity="0.62"/><circle cx="435" cy="253" r="7" fill="#d8d6a6" opacity="0.74"/><circle cx="879" cy="294" r="14" fill="#d8d6a6" opacity="0.84"/><circle cx="337" cy="234" r="16" fill="#d8d6a6" opacity="0.77"/><circle cx="579" cy="313" r="13" fill="#d8d6a6" opacity="0.79"/><circle cx="507" cy="219" r="11" fill="#d8d6a6" opacity="0.55"/><circle cx="561" cy="316" r="10" fill="#d8d6a6" opacity="0.50"/><circle cx="353" cy="220" r="14" fill="#d8d6a6" opacity="0.63"/><circle cx="505" cy="207" r="16" fill="#d8d6a6" opacity="0.65"/><circle cx="454" cy="203" r="7" fill="#d8d6a6" opacity="0.56"/><circle cx="744" cy="225" r="7" fill="#d8d6a6" opacity="0.67"/><circle cx="479" cy="321" r="8" fill="#d8d6a6" opacity="0.69"/><circle cx="803" cy="254" r="16" fill="#d8d6a6" opacity="0.67"/><rect x="351" y="183" width="16" height="148" fill="#3c3d1c" opacity="0.18"/><rect x="448" y="175" width="16" height="165" fill="#3c3d1c" opacity="0.18"/><rect x="544" y="176" width="16" height="166" fill="#3c3d1c" opacity="0.18"/><rect x="641" y="181" width="16" height="156" fill="#3c3d1c" opacity="0.18"/><rect x="738" y="194" width="16" height="133" fill="#3c3d1c" opacity="0.18"/><rect x="835" y="213" width="16" height="100" fill="#3c3d1c" opacity="0.18"/></g>
<path d="M 175.0 252.0 C 184.7 242.3 208.4 228.0 233.4 216.0 C 258.5 204.0 282.2 188.3 325.3 180.0 C 368.4 171.7 431.1 166.3 492.3 166.0 C 553.5 165.7 631.5 170.7 692.7 178.0 C 753.9 185.3 816.6 201.0 859.7 210.0 C 902.8 219.0 926.5 226.0 951.6 232.0 C 976.6 238.0 1000.3 238.0 1010.0 246.0 C 1019.7 254.0 1019.7 271.7 1010.0 280.0 C 1000.3 288.3 976.6 290.0 951.6 296.0 C 926.5 302.0 902.8 308.3 859.7 316.0 C 816.6 323.7 753.9 336.3 692.7 342.0 C 631.5 347.7 553.5 351.3 492.3 350.0 C 431.1 348.7 368.4 342.0 325.3 334.0 C 282.2 326.0 258.5 312.0 233.4 302.0 C 208.4 292.0 184.7 282.3 175.0 274.0 C 165.3 265.7 165.3 261.7 175.0 252.0 Z" fill="none"/>
<path d="M 425.5 268 Q 495.5 306 433.5 334 Q 413.5 300 425.5 268 Z" fill="#6f7040" opacity=".85"/><path d="M 458.90000000000003 342.8 Q 476.90000000000003 390.8 446.90000000000003 386.8 Q 442.90000000000003 358.8 458.90000000000003 342.8 Z" fill="#6f7040" opacity=".8"/><path d="M 316.95000000000005 193.27272727272725 Q 298.95000000000005 262 316.95000000000005 321.0909090909091" fill="none" stroke="#23230f" stroke-width="2" opacity=".5"/>
<circle cx="275.2" cy="256" r="16" fill="none" stroke="#0c0f10" stroke-width="2.5"/><circle cx="275.2" cy="256" r="13" fill="#0c1112" stroke="none"/><circle cx="271.3" cy="252.1" r="4.16" fill="#cfe0e2" stroke="none"/>
</g></svg>