<svg xmlns="http://www.w3.org/2000/svg" viewBox="0 0 1200 520">
<defs>
<linearGradient id="glm" x1="0" y1="0" x2="0" y2="1">
<stop offset="0" stop-color="#42613a"/>
<stop offset=".5" stop-color="#6f8a52"/>
<stop offset="1" stop-color="#cdd1a6"/>
</linearGradient>
<clipPath id="clm"><path d="M 175.0 252.0 C 184.7 242.3 208.4 228.0 233.4 216.0 C 258.5 204.0 282.2 188.3 325.3 180.0 C 368.4 171.7 431.1 166.3 492.3 166.0 C 553.5 165.7 631.5 170.7 692.7 178.0 C 753.9 185.3 816.6 201.0 859.7 210.0 C 902.8 219.0 926.5 226.0 951.6 232.0 C 976.6 238.0 1000.3 238.0 1010.0 246.0 C 1019.7 254.0 1019.7 271.7 1010.0 280.0 C 1000.3 288.3 976.6 290.0 951.6 296.0 C 926.5 302.0 902.8 308.3 859.7 316.0 C 816.6 323.7 753.9 336.3 692.7 342.0 C 631.5 347.7 553.5 351.3 492.3 350.0 C 431.1 348.7 368.4 342.0 325.3 334.0 C 282.2 326.0 258.5 312.0 233.4 302.0 C 208.4 292.0 184.7 282.3 175.0 274.0 C 165.3 265.7 165.3 261.7 175.0 252.0 Z"/></clipPath>

</defs>
<g stroke="#1d2a16" stroke-width="2.5" stroke-linejoin="round">
<path d="M 408.8 173.0 L 408.8 123.0 L 435.04285714285714 158.0 L 461.2857142857143 121.45714285714286 L 487.5285714285714 154.45714285714286 L 513.7714285714285 123.0 L 540.0142857142856 154.0 L 566.2571428571428 129.00000000000003 L 592.4999999999999 158.00000000000003 L 618.742857142857 135.0 L 644.9857142857142 161.99999999999997 L 671.2285714285715 141.0 L 697.4714285714286 166.0 L 723.7142857142857 151.08571428571426 L 749.9571428571428 174.08571428571426 L 776.1999999999999 164.0 L 802.4428571428571 185.0 L 776.1999999999999 194.0 Z" fill="#3c5232" opacity=".92"/><path d="M 692.7 342.0 Q 776.1999999999999 371.0 859.6999999999999 316.0 Z" fill="#3c5232" opacity=".9"/><g fill="#3c5232" opacity=".95"><path d="M 1004 233.0 L 1160 204 L 1103.0 262 L 1160 320 L 1004 291.0 Q 1040 262 1004 233.0 Z" /></g>
<path d="M 175.0 252.0 C 184.7 242.3 208.4 228.0 233.4 216.0 C 258.5 204.0 282.2 188.3 325.3 180.0 C 368.4 171.7 431.1 166.3 492.3 166.0 C 553.5 165.7 631.5 170.7 692.7 178.0 C 753.9 185.3 816.6 201.0 859.7 210.0 C 902.8 219.0 926.5 226.0 951.6 232.0 C 976.6 238.0 1000.3 238.0 1010.0 246.0 C 1019.7 254.0 1019.7 271.7 1010.0 280.0 C 1000.3 288.3 976.6 290.0 951.6 296.0 C 926.5 302.0 902.8 308.3 859.7 316.0 C 816.6 323.7 753.9 336.3 692.7 342.0 C 631.5 347.7 553.5 351.3 492.3 350.0 C 431.1 348.7 368.4 342.0 325.3 334.0 C 282.2 326.0 258.5 312.0 233.4 302.0 C 208.4 292.0 184.7 282.3 175.0 274.0 C 165.3 265.7 165.3 261.7 175.0 252.0 Z" fill="url(#glm)"/>
<g clip-path="url(#clm)" stroke="none"><ellipse cx="806" cy="294" rx="18" ry="11" fill="#2c3a1f" opacity="0.40"/><ellipse cx="729" cy="257" rx="22" ry="12" fill="#2c3a1f" opacity="0.63"/><ellipse cx="501" cy="302" rx="22" ry="12" fill="#2c3a1f" opacity="0.56"/><ellipse cx="741" cy="225" rx="19" ry="16" fill="#2c3a1f" opacity="0.48"/><ellipse cx="812" cy="280" rx="24" ry="11" fill="#2c3a1f" opacity="0.43"/><ellipse cx="810" cy="292" rx="17" ry="9" fill="#2c3a1f" opacity="0.46"/><ellipse cx="713" cy="234" rx="25" ry="14" fill="#2c3a1f" opacity="0.46"/><ellipse cx="725" cy="244" rx="25" ry="17" fill="#2c3a1f" opacity="0.55"/><ellipse cx="719" cy="285" rx="23" ry="18" fill="#2c3a1f" opacity="0.41"/><ellipse cx="553" cy="273" rx="15" ry="14" fill="#2c3a1f" opacity="0.43"/><ellipse cx="856" cy="265" rx="12" ry="15" fill="#2c3a1f" opacity="0.49"/><ellipse cx="457" cy="255" rx="12" ry="10" fill="#2c3a1f" opacity="0.66"/><ellipse cx="750" cy="205" rx="22" ry="8" fill="#2c3a1f" opacity="0.50"/><ellipse cx="871" cy="273" rx="15" ry="12" fill="#2c3a1f" opacity="0.52"/><polyline points="309 257 343 257 378 257 413 258 447 258 482 258 517 258 552 259 586 259 621 259 656 260 691 260 725 261 760 261 795 262 829 262 864 263 899 263 934 264 968 264" fill="none" stroke="#283a1c" stroke-width="9" opacity="0.55"/></g>
<path d="M 175.0 252.0 C 184.7 242.3 208.4 228.0 233.4 216.0 C 258.5 204.0 282.2 188.3 325.3 180.0 C 368.4 171.7 431.1 166.3 492.3 166.0 C 553.5 165.7 631.5 170.7 692.7 178.0 C 753.9 185.3 816.6 201.0 859.7 210.0 C 902.8 219.0 926.5 226.0 951.6 232.0 C 976.6 238.0 1000.3 238.0 1010.0 246.0 C 1019.7 254.0 1019.7 271.7 1010.0 280.0 C 1000.3 288.3 976.6 290.0 951.6 296.0 C 926.5 302.0 902.8 308.3 859.7 316.0 C 816.6 323.7 753.9 336.3 692.7 342.0 C 631.5 347.7 553.5 351.3 492.3 350.0 C 431.1 348.7 368.4 342.0 325.3 334.0 C 282.2 326.0 258.5 312.0 233.4 302.0 C 208.4 292.0 184.7 282.3 175.0 274.0 C 165.3 265.7 165.3 261.7 175.0 252.0 Z" fill="none"/>
<path d="M 408.8 268 Q 478.8 306 416.8 334 Q 396.8 300 408.8 268 Z" fill="#5f7848" opacity=".85"/><path d="M 458.90000000000003 342.8 Q 476.90000000000003 390.8 446.90000000000003 386.8 Q 442.90000000000003 358.8 458.90000000000003 342.8 Z" fill="#5f7848" opacity=".8"/><path d="M 316.95000000000005 193.27272727272725 Q 298.95000000000005 262 316.95000000000005 321.0909090909091" fill="none" stroke="#1d2a16" stroke-width="2" opacity=".5"/>
<circle cx="283.55" cy="256" r="16" fill="none" stroke="#0c0f10" stroke-width="2.5"/><circle cx="283.55" cy="256" r="13" fill="#0c1112" stroke="none"/><circle cx="279.65000000000003" cy="252.1" r="4.16" fill="#cfe0e2" stroke="none"/>
</g></svg>