<svg xmlns="http://www.w3.org/2000/svg" viewBox="0 0 1200 520">
<defs>
<linearGradient id="gop" x1="0" y1="0" x2="0" y2="1">
<stop offset="0" stop-color="#33442f"/>
<stop offset=".5" stop-color="#506446"/>
<stop offset="1" stop-color="#9aaa86"/>
</linearGradient>
<clipPath id="cop"><path d="M 175.0 250.0 C 184.7 236.0 205.6 209.7 233.4 192.0 C 261.3 174.3 293.3 153.7 342.0 144.0 C 390.7 134.3 461.7 131.7 525.7 134.0 C 589.7 136.3 667.7 146.7 726.1 158.0 C 784.5 169.3 837.4 190.0 876.4 202.0 C 915.4 214.0 937.6 222.7 959.9 230.0 C 982.2 237.3 1001.6 237.7 1010.0 246.0 C 1018.4 254.3 1018.4 271.3 1010.0 280.0 C 1001.6 288.7 982.2 290.0 959.9 298.0 C 937.6 306.0 915.4 316.7 876.4 328.0 C 837.4 339.3 784.5 357.0 726.1 366.0 C 667.7 375.0 589.7 382.0 525.7 382.0 C 461.7 382.0 390.7 376.3 342.0 366.0 C 293.3 355.7 261.3 335.0 233.4 320.0 C 205.6 305.0 184.7 287.7 175.0 276.0 C 165.3 264.3 165.3 264.0 175.0 250.0 Z"/></clipPath>

</defs>
<g stroke="#172013" stroke-width="2.5" stroke-linejoin="round">
<path d="M 392.1 141.27272727272725 L 392.1 95.27272727272725 L 415.95714285714286 127.47272727272725 L 439.81428571428575 95.30389610389611 L 463.6714285714286 125.6638961038961 L 487.5285714285714 95.33506493506496 L 511.38571428571424 123.85506493506496 L 535.2428571428571 97.02857142857142 L 559.1 123.70857142857142 L 582.9571428571428 105.37142857142858 L 606.8142857142857 130.21142857142857 L 630.6714285714286 113.71428571428572 L 654.5285714285715 136.71428571428572 L 678.3857142857144 122.05714285714285 L 702.2428571428572 143.21714285714285 L 726.1 130.4 L 749.9571428571429 149.72 L 726.1 158.0 Z" fill="#2c3a28" opacity=".92"/><path d="M 692.7 368.6666666666667 Q 767.85 397.44444444444446 843.0 336.44444444444446 Z" fill="#2c3a28" opacity=".9"/><g fill="#2c3a28" opacity=".95"><path d="M 1004 234.0 L 1160 206 L 1103.0 262 L 1160 318 L 1004 290.0 Q 1040 262 1004 234.0 Z" /></g>
<path d="M 175.0 250.0 C 184.7 236.0 205.6 209.7 233.4 192.0 C 261.3 174.3 293.3 153.7 342.0 144.0 C 390.7 134.3 461.7 131.7 525.7 134.0 C 589.7 136.3 667.7 146.7 726.1 158.0 C 784.5 169.3 837.4 190.0 876.4 202.0 C 915.4 214.0 937.6 222.7 959.9 230.0 C 982.2 237.3 1001.6 237.7 1010.0 246.0 C 1018.4 254.3 1018.4 271.3 1010.0 280.0 C 1001.6 288.7 982.2 290.0 959.9 298.0 C 937.6 306.0 915.4 316.7 876.4 328.0 C 837.4 339.3 784.5 357.0 726.1 366.0 C 667.7 375.0 589.7 382.0 525.7 382.0 C 461.7 382.0 390.7 376.3 342.0 366.0 C 293.3 355.7 261.3 335.0 233.4 320.0 C 205.6 305.0 184.7 287.7 175.0 276.0 C 165.3 264.3 165.3 264.0 175.0 250.0 Z" fill="url(#gop)"/>
<g clip-path="url(#cop)" stroke="none"><circle cx="509" cy="157" r="11" fill="#e8efe2" opacity=".9"/><circle cx="609" cy="164" r="9" fill="#e8efe2" opacity=".85"/></g>
<path d="M 175.0 250.0 C 184.7 236.0 205.6 209.7 233.4 192.0 C 261.3 174.3 293.3 153.7 342.0 144.0 C 390.7 134.3 461.7 131.7 525.7 134.0 C 589.7 136.3 667.7 146.7 726.1 158.0 C 784.5 169.3 837.4 190.0 876.4 202.0 C 915.4 214.0 937.6 222.7 959.9 230.0 C 982.2 237.3 1001.6 237.7 1010.0 246.0 C 1018.4 254.3 1018.4 271.3 1010.0 280.0 C 1001.6 288.7 982.2 290.0 959.9 298.0 C 937.6 306.0 915.4 316.7 876.4 328.0 C 837.4 339.3 784.5 357.0 726.1 366.0 C 667.7 375.0 589.7 382.0 525.7 382.0 C 461.7 382.0 390.7 376.3 342.0 366.0 C 293.3 355.7 261.3 335.0 233.4 320.0 C 205.6 305.0 184.7 287.7 175.0 276.0 C 165.3 264.3 165.3 264.0 175.0 250.0 Z" fill="none"/>
<path d="M 425.5 268 Q 495.5 306 433.5 334 Q 413.5 300 425.5 268 Z" fill="#475a3d" opacity=".85"/><path d="M 458.90000000000003 372.1818181818182 Q 476.90000000000003 420.1818181818182 446.90000000000003 416.1818181818182 Q 442.90000000000003 388.1818181818182 458.90000000000003 372.1818181818182 Z" fill="#475a3d" opacity=".8"/><path d="M 316.95000000000005 165.07692307692307 Q 298.95000000000005 262 316.95000000000005 345.38461538461536" fill="none" stroke="#172013" stroke-width="2" opacity=".5"/>
<circle cx="275.2" cy="256" r="15" fill="none" stroke="#3a73c0" stroke-width="2.5"/><circle cx="275.2" cy="256" r="12" fill="#0c1112" stroke="none"/><circle cx="271.59999999999997" cy="252.4" r="3.84" fill="#cfe0e2" stroke="none"/>
</g></svg>