<svg xmlns="http://www.w3.org/2000/svg" viewBox="0 0 1200 520">
<defs>
<linearGradient id="gmk" x1="0" y1="0" x2="0" y2="1">
<stop offset="0" stop-color="#2f5650"/>
<stop offset=".5" stop-color="#5c8079"/>
<stop offset="1" stop-color="#d6dedb"/>
</linearGradient>
<clipPath id="cmk"><path d="M 175.0 254.0 C 186.1 245.7 211.2 231.7 241.8 222.0 C 272.4 212.3 307.2 201.0 358.7 196.0 C 410.2 191.0 486.7 190.0 550.8 192.0 C 614.8 194.0 688.5 202.0 742.8 208.0 C 797.1 214.0 841.6 222.7 876.4 228.0 C 911.2 233.3 929.3 236.3 951.6 240.0 C 973.8 243.7 1000.3 244.3 1010.0 250.0 C 1019.7 255.7 1019.7 268.3 1010.0 274.0 C 1000.3 279.7 973.8 280.7 951.6 284.0 C 929.3 287.3 911.2 289.3 876.4 294.0 C 841.6 298.7 797.1 307.0 742.8 312.0 C 688.5 317.0 614.8 322.7 550.8 324.0 C 486.7 325.3 410.2 324.3 358.7 320.0 C 307.2 315.7 272.4 306.0 241.8 298.0 C 211.2 290.0 186.1 279.3 175.0 272.0 C 163.9 264.7 163.9 262.3 175.0 254.0 Z"/></clipPath>

</defs>
<g stroke="#15211d" stroke-width="2.5" stroke-linejoin="round">
<path d="M 375.4 195.6521739130435 L 375.4 157.6521739130435 L 382.5571428571428 184.2521739130435 L 389.71428571428567 159.52546583850932 L 396.8714285714285 184.6054658385093 L 404.02857142857135 161.39875776397514 L 411.1857142857142 184.95875776397514 L 418.34285714285716 163.272049689441 L 425.5 185.312049689441 L 432.65714285714284 165.1453416149068 L 439.8142857142857 185.66534161490682 L 446.9714285714286 167.0186335403727 L 454.12857142857143 186.0186335403727 L 461.2857142857143 168.8919254658385 L 468.4428571428571 186.3719254658385 L 475.59999999999997 170.76521739130433 L 482.7571428571428 186.72521739130434 L 475.59999999999997 193.56521739130434 Z" fill="#27463f" opacity=".92"/><path d="M 692.7 315.1304347826087 Q 734.4499999999999 354.5217391304348 776.1999999999999 307.5 Z" fill="#27463f" opacity=".9"/><g fill="#27463f" opacity=".95"><path d="M 1004 226.9 L 1160 172.3 Q 1070.0 262 1160 351.7 L 1004 297.1 Q 1034 262 1004 226.9 Z" /></g>
<path d="M 175.0 254.0 C 186.1 245.7 211.2 231.7 241.8 222.0 C 272.4 212.3 307.2 201.0 358.7 196.0 C 410.2 191.0 486.7 190.0 550.8 192.0 C 614.8 194.0 688.5 202.0 742.8 208.0 C 797.1 214.0 841.6 222.7 876.4 228.0 C 911.2 233.3 929.3 236.3 951.6 240.0 C 973.8 243.7 1000.3 244.3 1010.0 250.0 C 1019.7 255.7 1019.7 268.3 1010.0 274.0 C 1000.3 279.7 973.8 280.7 951.6 284.0 C 929.3 287.3 911.2 289.3 876.4 294.0 C 841.6 298.7 797.1 307.0 742.8 312.0 C 688.5 317.0 614.8 322.7 550.8 324.0 C 486.7 325.3 410.2 324.3 358.7 320.0 C 307.2 315.7 272.4 306.0 241.8 298.0 C 211.2 290.0 186.1 279.3 175.0 272.0 C 163.9 264.7 163.9 262.3 175.0 254.0 Z" fill="url(#gmk)"/>
<g clip-path="url(#cmk)" stroke="none"><path d="M 342 204 q 22 12 10 30 q -14 16 6 30" fill="none" stroke="#15211d" stroke-width="6" opacity="0.5"/><path d="M 394 199 q 22 12 10 30 q -14 16 6 30" fill="none" stroke="#15211d" stroke-width="6" opacity="0.5"/><path d="M 446 198 q 22 12 10 30 q -14 16 6 30" fill="none" stroke="#15211d" stroke-width="6" opacity="0.5"/><path d="M 497 197 q 22 12 10 30 q -14 16 6 30" fill="none" stroke="#15211d" stroke-width="6" opacity="0.5"/><path d="M 549 196 q 22 12 10 30 q -14 16 6 30" fill="none" stroke="#15211d" stroke-width="6" opacity="0.5"/><path d="M 601 200 q 22 12 10 30 q -14 16 6 30" fill="none" stroke="#15211d" stroke-width="6" opacity="0.5"/><path d="M 653 204 q 22 12 10 30 q -14 16 6 30" fill="none" stroke="#15211d" stroke-width="6" opacity="0.5"/><path d="M 704 209 q 22 12 10 30 q -14 16 6 30" fill="none" stroke="#15211d" stroke-width="6" opacity="0.5"/><path d="M 756 214 q 22 12 10 30 q -14 16 6 30" fill="none" stroke="#15211d" stroke-width="6" opacity="0.5"/><path d="M 808 222 q 22 12 10 30 q -14 16 6 30" fill="none" stroke="#15211d" stroke-width="6" opacity="0.5"/><path d="M 860 230 q 22 12 10 30 q -14 16 6 30" fill="none" stroke="#15211d" stroke-width="6" opacity="0.5"/><path d="M 826 220 l 14 -10 l 2 10 Z" fill="#16202b" opacity=".7"/><path d="M 826 301 l 14 10 l 2 -10 Z" fill="#16202b" opacity=".7"/><path d="M 864 226 l 14 -10 l 2 10 Z" fill="#16202b" opacity=".7"/><path d="M 864 296 l 14 10 l 2 -10 Z" fill="#16202b" opacity=".7"/><path d="M 901 232 l 14 -10 l 2 10 Z" fill="#16202b" opacity=".7"/><path d="M 901 291 l 14 10 l 2 -10 Z" fill="#16202b" opacity=".7"/><path d="M 939 238 l 14 -10 l 2 10 Z" fill="#16202b" opacity=".7"/><path d="M 939 286 l 14 10 l 2 -10 Z" fill="#16202b" opacity=".7"/><path d="M 977 244 l 14 -10 l 2 10 Z" fill="#16202b" opacity=".7"/><path d="M 977 280 l 14 10 l 2 -10 Z" fill="#16202b" opacity=".7"/></g>
<path d="M 175.0 254.0 C 186.1 245.7 211.2 231.7 241.8 222.0 C 272.4 212.3 307.2 201.0 358.7 196.0 C 410.2 191.0 486.7 190.0 550.8 192.0 C 614.8 194.0 688.5 202.0 742.8 208.0 C 797.1 214.0 841.6 222.7 876.4 228.0 C 911.2 233.3 929.3 236.3 951.6 240.0 C 973.8 243.7 1000.3 244.3 1010.0 250.0 C 1019.7 255.7 1019.7 268.3 1010.0 274.0 C 1000.3 279.7 973.8 280.7 951.6 284.0 C 929.3 287.3 911.2 289.3 876.4 294.0 C 841.6 298.7 797.1 307.0 742.8 312.0 C 688.5 317.0 614.8 322.7 550.8 324.0 C 486.7 325.3 410.2 324.3 358.7 320.0 C 307.2 315.7 272.4 306.0 241.8 298.0 C 211.2 290.0 186.1 279.3 175.0 272.0 C 163.9 264.7 163.9 262.3 175.0 254.0 Z" fill="none"/>
<path d="M 425.5 268 Q 495.5 306 433.5 334 Q 413.5 300 425.5 268 Z" fill="#48685f" opacity=".85"/><path d="M 458.90000000000003 318.0869565217391 Q 476.90000000000003 366.0869565217391 446.90000000000003 362.0869565217391 Q 442.90000000000003 334.0869565217391 458.90000000000003 318.0869565217391 Z" fill="#48685f" opacity=".8"/><path d="M 316.95000000000005 215.28571428571428 Q 298.95000000000005 262 316.95000000000005 302.14285714285717" fill="none" stroke="#15211d" stroke-width="2" opacity=".5"/>
<circle cx="258.5" cy="256" r="16" fill="none" stroke="#0c0f10" stroke-width="2.5"/><circle cx="258.5" cy="256" r="13" fill="#0c1112" stroke="none"/><circle cx="254.6" cy="252.1" r="4.16" fill="#cfe0e2" stroke="none"/>
</g></svg>