<svg xmlns="http://www.w3.org/2000/svg" viewBox="0 0 1200 520">
<defs>
<linearGradient id="gbo" x1="0" y1="0" x2="0" y2="1">
<stop offset="0" stop-color="#2f4f6e"/>
<stop offset=".5" stop-color="#5f7f9a"/>
<stop offset="1" stop-color="#d2dadd"/>
</linearGradient>
<clipPath id="cbo"><path d="M 175.0 254.0 C 186.1 245.7 211.2 231.7 241.8 222.0 C 272.4 212.3 307.2 201.0 358.7 196.0 C 410.2 191.0 486.7 190.0 550.8 192.0 C 614.8 194.0 688.5 202.0 742.8 208.0 C 797.1 214.0 841.6 222.7 876.4 228.0 C 911.2 233.3 929.3 236.3 951.6 240.0 C 973.8 243.7 1000.3 244.3 1010.0 250.0 C 1019.7 255.7 1019.7 268.3 1010.0 274.0 C 1000.3 279.7 973.8 280.7 951.6 284.0 C 929.3 287.3 911.2 289.3 876.4 294.0 C 841.6 298.7 797.1 307.0 742.8 312.0 C 688.5 317.0 614.8 322.7 550.8 324.0 C 486.7 325.3 410.2 324.3 358.7 320.0 C 307.2 315.7 272.4 306.0 241.8 298.0 C 211.2 290.0 186.1 279.3 175.0 272.0 C 163.9 264.7 163.9 262.3 175.0 254.0 Z"/></clipPath>

</defs>
<g stroke="#16202b" stroke-width="2.5" stroke-linejoin="round">
<path d="M 375.4 195.6521739130435 L 375.4 151.6521739130435 L 384.9428571428571 182.4521739130435 L 394.48571428571427 153.76894409937887 L 404.0285714285714 182.8089440993789 L 413.57142857142856 155.8857142857143 L 423.1142857142857 183.1657142857143 L 432.65714285714284 158.00248447204967 L 442.2 183.52248447204968 L 451.74285714285713 160.1192546583851 L 461.2857142857143 183.8792546583851 L 470.8285714285715 162.23602484472048 L 480.3714285714286 184.2360248447205 L 489.9142857142857 164.3527950310559 L 499.45714285714286 184.5927950310559 L 509.0 166.4695652173913 L 518.5428571428572 184.94956521739132 L 509.0 192.8695652173913 Z" fill="#27435e" opacity=".92"/><path d="M 709.4 314.0869565217391 Q 759.5 351.75 809.6 303.0 Z" fill="#27435e" opacity=".9"/><g fill="#27435e" opacity=".95"><path d="M 1004 223.3 L 1170 163.10000000000002 Q 1074.0 262 1170 360.9 L 1004 300.7 Q 1034 262 1004 223.3 Z" /></g>
<path d="M 175.0 254.0 C 186.1 245.7 211.2 231.7 241.8 222.0 C 272.4 212.3 307.2 201.0 358.7 196.0 C 410.2 191.0 486.7 190.0 550.8 192.0 C 614.8 194.0 688.5 202.0 742.8 208.0 C 797.1 214.0 841.6 222.7 876.4 228.0 C 911.2 233.3 929.3 236.3 951.6 240.0 C 973.8 243.7 1000.3 244.3 1010.0 250.0 C 1019.7 255.7 1019.7 268.3 1010.0 274.0 C 1000.3 279.7 973.8 280.7 951.6 284.0 C 929.3 287.3 911.2 289.3 876.4 294.0 C 841.6 298.7 797.1 307.0 742.8 312.0 C 688.5 317.0 614.8 322.7 550.8 324.0 C 486.7 325.3 410.2 324.3 358.7 320.0 C 307.2 315.7 272.4 306.0 241.8 298.0 C 211.2 290.0 186.1 279.3 175.0 272.0 C 163.9 264.7 163.9 262.3 175.0 254.0 Z" fill="url(#gbo)"/>
<g clip-path="url(#cbo)" stroke="none"><path d="M 359 196 l 70 34" stroke="#16202b" stroke-width="6" opacity=".5" fill="none"/><path d="M 417 195 l 70 34" stroke="#16202b" stroke-width="6" opacity=".5" fill="none"/><path d="M 476 194 l 70 34" stroke="#16202b" stroke-width="6" opacity=".5" fill="none"/><path d="M 534 192 l 70 34" stroke="#16202b" stroke-width="6" opacity=".5" fill="none"/><path d="M 592 195 l 70 34" stroke="#16202b" stroke-width="6" opacity=".5" fill="none"/><path d="M 651 200 l 70 34" stroke="#16202b" stroke-width="6" opacity=".5" fill="none"/><path d="M 709 205 l 70 34" stroke="#16202b" stroke-width="6" opacity=".5" fill="none"/><path d="M 768 212 l 70 34" stroke="#16202b" stroke-width="6" opacity=".5" fill="none"/><path d="M 826 220 l 14 -10 l 2 10 Z" fill="#16202b" opacity=".7"/><path d="M 826 301 l 14 10 l 2 -10 Z" fill="#16202b" opacity=".7"/><path d="M 864 226 l 14 -10 l 2 10 Z" fill="#16202b" opacity=".7"/><path d="M 864 296 l 14 10 l 2 -10 Z" fill="#16202b" opacity=".7"/><path d="M 901 232 l 14 -10 l 2 10 Z" fill="#16202b" opacity=".7"/><path d="M 901 291 l 14 10 l 2 -10 Z" fill="#16202b" opacity=".7"/><path d="M 939 238 l 14 -10 l 2 10 Z" fill="#16202b" opacity=".7"/><path d="M 939 286 l 14 10 l 2 -10 Z" fill="#16202b" opacity=".7"/><path d="M 977 244 l 14 -10 l 2 10 Z" fill="#16202b" opacity=".7"/><path d="M 977 280 l 14 10 l 2 -10 Z" fill="#16202b" opacity=".7"/></g>
<path d="M 175.0 254.0 C 186.1 245.7 211.2 231.7 241.8 222.0 C 272.4 212.3 307.2 201.0 358.7 196.0 C 410.2 191.0 486.7 190.0 550.8 192.0 C 614.8 194.0 688.5 202.0 742.8 208.0 C 797.1 214.0 841.6 222.7 876.4 228.0 C 911.2 233.3 929.3 236.3 951.6 240.0 C 973.8 243.7 1000.3 244.3 1010.0 250.0 C 1019.7 255.7 1019.7 268.3 1010.0 274.0 C 1000.3 279.7 973.8 280.7 951.6 284.0 C 929.3 287.3 911.2 289.3 876.4 294.0 C 841.6 298.7 797.1 307.0 742.8 312.0 C 688.5 317.0 614.8 322.7 550.8 324.0 C 486.7 325.3 410.2 324.3 358.7 320.0 C 307.2 315.7 272.4 306.0 241.8 298.0 C 211.2 290.0 186.1 279.3 175.0 272.0 C 163.9 264.7 163.9 262.3 175.0 254.0 Z" fill="none"/>
<path d="M 425.5 268 Q 495.5 306 433.5 334 Q 413.5 300 425.5 268 Z" fill="#4a6a85" opacity=".85"/><path d="M 458.90000000000003 318.0869565217391 Q 476.90000000000003 366.0869565217391 446.90000000000003 362.0869565217391 Q 442.90000000000003 334.0869565217391 458.90000000000003 318.0869565217391 Z" fill="#4a6a85" opacity=".8"/><path d="M 316.95000000000005 215.28571428571428 Q 298.95000000000005 262 316.95000000000005 302.14285714285717" fill="none" stroke="#16202b" stroke-width="2" opacity=".5"/>
<circle cx="258.5" cy="256" r="16" fill="none" stroke="#0c0f10" stroke-width="2.5"/><circle cx="258.5" cy="256" r="13" fill="#0c1112" stroke="none"/><circle cx="254.6" cy="252.1" r="4.16" fill="#cfe0e2" stroke="none"/>
</g></svg>