<svg xmlns="http://www.w3.org/2000/svg" viewBox="0 0 1200 520">
<defs>
<linearGradient id="gsf" x1="0" y1="0" x2="0" y2="1">
<stop offset="0" stop-color="#7e8890"/>
<stop offset=".5" stop-color="#a7b0b5"/>
<stop offset="1" stop-color="#e2e6e6"/>
</linearGradient>
<clipPath id="csf"><path d="M 175.0 254.0 C 186.1 244.7 211.2 227.0 241.8 218.0 C 272.4 209.0 307.2 203.3 358.7 200.0 C 410.2 196.7 486.7 197.0 550.8 198.0 C 614.8 199.0 687.1 201.7 742.8 206.0 C 798.5 210.3 848.6 218.7 884.8 224.0 C 920.9 229.3 939.0 233.7 959.9 238.0 C 980.8 242.3 1001.6 243.7 1010.0 250.0 C 1018.4 256.3 1018.4 269.7 1010.0 276.0 C 1001.6 282.3 980.8 283.7 959.9 288.0 C 939.0 292.3 920.9 297.0 884.8 302.0 C 848.6 307.0 798.5 314.3 742.8 318.0 C 687.1 321.7 614.8 323.7 550.8 324.0 C 486.7 324.3 410.2 323.7 358.7 320.0 C 307.2 316.3 272.4 309.7 241.8 302.0 C 211.2 294.3 186.1 282.0 175.0 274.0 C 163.9 266.0 163.9 263.3 175.0 254.0 Z"/></clipPath>

</defs>
<g stroke="#2b3236" stroke-width="2.5" stroke-linejoin="round">
<path d="M 358.7 200.0 L 358.7 154.0 L 375.4 186.2 L 392.1 156.2807453416149 L 408.8 186.6407453416149 L 425.5 158.5614906832298 L 442.2 187.0814906832298 L 458.90000000000003 160.84223602484474 L 475.6 187.52223602484472 L 492.3 163.1229813664596 L 509.0 187.96298136645962 L 525.7 165.40372670807452 L 542.4000000000001 188.40372670807452 L 559.1 168.1192546583851 L 575.8000000000001 189.2792546583851 L 592.5 172.13913043478263 L 609.2 191.45913043478262 L 592.5 199.73913043478262 Z" fill="#6b757c" opacity=".92"/><path d="M 726.1 318.52173913043475 Q 792.9 354.3529411764706 859.6999999999999 304.8235294117647 Z" fill="#6b757c" opacity=".9"/><g fill="#6b757c" opacity=".95"><path d="M 1004 233.0 L 1160 204 L 1103.0 262 L 1160 320 L 1004 291.0 Q 1040 262 1004 233.0 Z" /></g>
<path d="M 175.0 254.0 C 186.1 244.7 211.2 227.0 241.8 218.0 C 272.4 209.0 307.2 203.3 358.7 200.0 C 410.2 196.7 486.7 197.0 550.8 198.0 C 614.8 199.0 687.1 201.7 742.8 206.0 C 798.5 210.3 848.6 218.7 884.8 224.0 C 920.9 229.3 939.0 233.7 959.9 238.0 C 980.8 242.3 1001.6 243.7 1010.0 250.0 C 1018.4 256.3 1018.4 269.7 1010.0 276.0 C 1001.6 282.3 980.8 283.7 959.9 288.0 C 939.0 292.3 920.9 297.0 884.8 302.0 C 848.6 307.0 798.5 314.3 742.8 318.0 C 687.1 321.7 614.8 323.7 550.8 324.0 C 486.7 324.3 410.2 323.7 358.7 320.0 C 307.2 316.3 272.4 309.7 241.8 302.0 C 211.2 294.3 186.1 282.0 175.0 274.0 C 163.9 266.0 163.9 263.3 175.0 254.0 Z" fill="url(#gsf)"/>
<g clip-path="url(#csf)" stroke="none"><ellipse cx="342" cy="291" rx="16" ry="22" fill="#10151a" opacity=".85"/><polyline points="325 251 359 250 393 250 427 251 461 251 494 251 528 251 562 251 596 251 630 252 664 252 698 253 731 253 765 254 799 255 833 255 867 256 901 257 934 258 968 259" fill="none" stroke="#5a646a" stroke-width="2" opacity="0.3"/></g>
<path d="M 175.0 254.0 C 186.1 244.7 211.2 227.0 241.8 218.0 C 272.4 209.0 307.2 203.3 358.7 200.0 C 410.2 196.7 486.7 197.0 550.8 198.0 C 614.8 199.0 687.1 201.7 742.8 206.0 C 798.5 210.3 848.6 218.7 884.8 224.0 C 920.9 229.3 939.0 233.7 959.9 238.0 C 980.8 242.3 1001.6 243.7 1010.0 250.0 C 1018.4 256.3 1018.4 269.7 1010.0 276.0 C 1001.6 282.3 980.8 283.7 959.9 288.0 C 939.0 292.3 920.9 297.0 884.8 302.0 C 848.6 307.0 798.5 314.3 742.8 318.0 C 687.1 321.7 614.8 323.7 550.8 324.0 C 486.7 324.3 410.2 323.7 358.7 320.0 C 307.2 316.3 272.4 309.7 241.8 302.0 C 211.2 294.3 186.1 282.0 175.0 274.0 C 163.9 266.0 163.9 263.3 175.0 254.0 Z" fill="none"/>
<path d="M 425.5 268 Q 495.5 306 433.5 334 Q 413.5 300 425.5 268 Z" fill="#8b9499" opacity=".85"/><path d="M 458.90000000000003 318.0869565217391 Q 476.90000000000003 366.0869565217391 446.90000000000003 362.0869565217391 Q 442.90000000000003 334.0869565217391 458.90000000000003 318.0869565217391 Z" fill="#8b9499" opacity=".8"/><path d="M 316.95000000000005 216.42857142857144 Q 298.95000000000005 262 316.95000000000005 303.57142857142856" fill="none" stroke="#2b3236" stroke-width="2" opacity=".5"/>
<circle cx="275.2" cy="256" r="16" fill="none" stroke="#0c0f10" stroke-width="2.5"/><circle cx="275.2" cy="256" r="13" fill="#0c1112" stroke="none"/><circle cx="271.3" cy="252.1" r="4.16" fill="#cfe0e2" stroke="none"/>
</g></svg>