<svg xmlns="http://www.w3.org/2000/svg" viewBox="0 0 1200 520">
<defs>
<linearGradient id="gsp" x1="0" y1="0" x2="0" y2="1">
<stop offset="0" stop-color="#5f6038"/>
<stop offset=".5" stop-color="#84855a"/>
<stop offset="1" stop-color="#c6c79c"/>
</linearGradient>
<clipPath id="csp"><path d="M 175.0 252.0 C 184.7 242.3 208.4 228.0 233.4 216.0 C 258.5 204.0 282.2 188.3 325.3 180.0 C 368.4 171.7 431.1 166.3 492.3 166.0 C 553.5 165.7 631.5 170.7 692.7 178.0 C 753.9 185.3 816.6 201.0 859.7 210.0 C 902.8 219.0 926.5 226.0 951.6 232.0 C 976.6 238.0 1000.3 238.0 1010.0 246.0 C 1019.7 254.0 1019.7 271.7 1010.0 280.0 C 1000.3 288.3 976.6 290.0 951.6 296.0 C 926.5 302.0 902.8 308.3 859.7 316.0 C 816.6 323.7 753.9 336.3 692.7 342.0 C 631.5 347.7 553.5 351.3 492.3 350.0 C 431.1 348.7 368.4 342.0 325.3 334.0 C 282.2 326.0 258.5 312.0 233.4 302.0 C 208.4 292.0 184.7 282.3 175.0 274.0 C 165.3 265.7 165.3 261.7 175.0 252.0 Z"/></clipPath>

</defs>
<g stroke="#262712" stroke-width="2.5" stroke-linejoin="round">
<path d="M 392.1 174.4 L 392.1 122.4 L 420.72857142857146 158.8 L 449.35714285714283 120.57142857142857 L 477.98571428571427 154.89142857142858 L 506.6142857142857 120.80000000000001 L 535.2428571428571 153.04 L 563.8714285714286 127.19999999999999 L 592.5 157.35999999999999 L 621.1285714285714 133.60000000000002 L 649.7571428571428 161.68 L 678.3857142857144 140.0 L 707.0142857142857 166.0 L 735.6428571428571 152.05714285714288 L 764.2714285714285 175.97714285714287 L 792.9 166.0 L 821.5285714285714 187.83999999999997 L 792.9 197.2 Z" fill="#52522f" opacity=".92"/><path d="M 692.7 342.0 Q 776.1999999999999 371.0 859.6999999999999 316.0 Z" fill="#52522f" opacity=".9"/><g fill="#52522f" opacity=".95"><path d="M 1004 232.0 L 1160 202 L 1103.0 262 L 1160 322 L 1004 292.0 Q 1040 262 1004 232.0 Z" /></g>
<path d="M 175.0 252.0 C 184.7 242.3 208.4 228.0 233.4 216.0 C 258.5 204.0 282.2 188.3 325.3 180.0 C 368.4 171.7 431.1 166.3 492.3 166.0 C 553.5 165.7 631.5 170.7 692.7 178.0 C 753.9 185.3 816.6 201.0 859.7 210.0 C 902.8 219.0 926.5 226.0 951.6 232.0 C 976.6 238.0 1000.3 238.0 1010.0 246.0 C 1019.7 254.0 1019.7 271.7 1010.0 280.0 C 1000.3 288.3 976.6 290.0 951.6 296.0 C 926.5 302.0 902.8 308.3 859.7 316.0 C 816.6 323.7 753.9 336.3 692.7 342.0 C 631.5 347.7 553.5 351.3 492.3 350.0 C 431.1 348.7 368.4 342.0 325.3 334.0 C 282.2 326.0 258.5 312.0 233.4 302.0 C 208.4 292.0 184.7 282.3 175.0 274.0 C 165.3 265.7 165.3 261.7 175.0 252.0 Z" fill="url(#gsp)"/>
<g clip-path="url(#csp)" stroke="none"><circle cx="916" cy="289" r="4" fill="#2e2f15" opacity="0.53"/><circle cx="842" cy="281" r="7" fill="#2e2f15" opacity="0.61"/><circle cx="700" cy="272" r="7" fill="#2e2f15" opacity="0.56"/><circle cx="591" cy="246" r="8" fill="#2e2f15" opacity="0.85"/><circle cx="912" cy="266" r="6" fill="#2e2f15" opacity="0.59"/><circle cx="347" cy="205" r="6" fill="#2e2f15" opacity="0.61"/><circle cx="560" cy="307" r="7" fill="#2e2f15" opacity="0.70"/><circle cx="471" cy="198" r="6" fill="#2e2f15" opacity="0.55"/><circle cx="641" cy="319" r="7" fill="#2e2f15" opacity="0.56"/><circle cx="877" cy="284" r="8" fill="#2e2f15" opacity="0.82"/><circle cx="797" cy="288" r="6" fill="#2e2f15" opacity="0.84"/><circle cx="920" cy="245" r="8" fill="#2e2f15" opacity="0.75"/><circle cx="610" cy="263" r="6" fill="#2e2f15" opacity="0.82"/><circle cx="635" cy="299" r="6" fill="#2e2f15" opacity="0.81"/><circle cx="881" cy="261" r="7" fill="#2e2f15" opacity="0.82"/><circle cx="773" cy="260" r="5" fill="#2e2f15" opacity="0.61"/><circle cx="758" cy="228" r="9" fill="#2e2f15" opacity="0.59"/><circle cx="888" cy="251" r="9" fill="#2e2f15" opacity="0.75"/><circle cx="637" cy="262" r="7" fill="#2e2f15" opacity="0.71"/><circle cx="518" cy="221" r="7" fill="#2e2f15" opacity="0.83"/><circle cx="710" cy="213" r="8" fill="#2e2f15" opacity="0.75"/><circle cx="886" cy="243" r="8" fill="#2e2f15" opacity="0.52"/><circle cx="729" cy="237" r="5" fill="#2e2f15" opacity="0.81"/><circle cx="391" cy="260" r="8" fill="#2e2f15" opacity="0.59"/><circle cx="455" cy="305" r="6" fill="#2e2f15" opacity="0.75"/><circle cx="345" cy="242" r="5" fill="#2e2f15" opacity="0.74"/><circle cx="377" cy="309" r="4" fill="#2e2f15" opacity="0.76"/><circle cx="338" cy="230" r="8" fill="#2e2f15" opacity="0.55"/><circle cx="439" cy="281" r="6" fill="#2e2f15" opacity="0.52"/><circle cx="937" cy="247" r="4" fill="#2e2f15" opacity="0.62"/><circle cx="705" cy="287" r="5" fill="#2e2f15" opacity="0.62"/><circle cx="344" cy="251" r="8" fill="#2e2f15" opacity="0.76"/><circle cx="883" cy="280" r="8" fill="#2e2f15" opacity="0.75"/><circle cx="617" cy="226" r="7" fill="#2e2f15" opacity="0.61"/><circle cx="388" cy="251" r="8" fill="#2e2f15" opacity="0.54"/><circle cx="687" cy="248" r="7" fill="#2e2f15" opacity="0.55"/><circle cx="918" cy="250" r="7" fill="#2e2f15" opacity="0.65"/><circle cx="336" cy="263" r="5" fill="#2e2f15" opacity="0.52"/><circle cx="346" cy="220" r="4" fill="#2e2f15" opacity="0.72"/><circle cx="639" cy="317" r="9" fill="#2e2f15" opacity="0.85"/></g>
<path d="M 175.0 252.0 C 184.7 242.3 208.4 228.0 233.4 216.0 C 258.5 204.0 282.2 188.3 325.3 180.0 C 368.4 171.7 431.1 166.3 492.3 166.0 C 553.5 165.7 631.5 170.7 692.7 178.0 C 753.9 185.3 816.6 201.0 859.7 210.0 C 902.8 219.0 926.5 226.0 951.6 232.0 C 976.6 238.0 1000.3 238.0 1010.0 246.0 C 1019.7 254.0 1019.7 271.7 1010.0 280.0 C 1000.3 288.3 976.6 290.0 951.6 296.0 C 926.5 302.0 902.8 308.3 859.7 316.0 C 816.6 323.7 753.9 336.3 692.7 342.0 C 631.5 347.7 553.5 351.3 492.3 350.0 C 431.1 348.7 368.4 342.0 325.3 334.0 C 282.2 326.0 258.5 312.0 233.4 302.0 C 208.4 292.0 184.7 282.3 175.0 274.0 C 165.3 265.7 165.3 261.7 175.0 252.0 Z" fill="none"/>
<path d="M 425.5 268 Q 495.5 306 433.5 334 Q 413.5 300 425.5 268 Z" fill="#70714a" opacity=".85"/><path d="M 458.90000000000003 342.8 Q 476.90000000000003 390.8 446.90000000000003 386.8 Q 442.90000000000003 358.8 458.90000000000003 342.8 Z" fill="#70714a" opacity=".8"/><path d="M 316.95000000000005 193.27272727272725 Q 298.95000000000005 262 316.95000000000005 321.0909090909091" fill="none" stroke="#262712" stroke-width="2" opacity=".5"/>
<circle cx="275.2" cy="256" r="15" fill="none" stroke="#0c0f10" stroke-width="2.5"/><circle cx="275.2" cy="256" r="12" fill="#0c1112" stroke="none"/><circle cx="271.59999999999997" cy="252.4" r="3.84" fill="#cfe0e2" stroke="none"/>
</g></svg>